<svg width="1920" height="74" viewBox="0 0 1920 74" fill="none" xmlns="http://www.w3.org/2000/svg">
<rect x="-5" width="1930" height="121" fill="#9E9E9E"/>
<path d="M174.205 28.955H176.17V30.305H181.585V28.955H183.565V34.61H174.205V28.955ZM176.17 31.835V33.035H181.585V31.835H176.17ZM172.6 35.78H185.155V37.37H172.6V35.78ZM177.865 33.77H179.86V36.44H177.865V33.77ZM174.115 40.505H183.745V42.095H174.115V40.505ZM174.115 38.18H176.11V41.09H174.115V38.18ZM193.415 29.51H195.035V31.535C195.035 34.97 193.835 38.195 191.21 39.485L190.01 37.88C192.35 36.785 193.415 34.115 193.415 31.535V29.51ZM193.82 29.51H195.41V31.535C195.41 34.025 196.4 36.56 198.62 37.64L197.42 39.23C194.915 37.955 193.82 34.865 193.82 31.535V29.51ZM199.175 28.445H201.185V42.335H199.175V28.445ZM200.735 33.785H203.195V35.45H200.735V33.785ZM213.619 28.43H215.629V42.365H213.619V28.43ZM208.144 29.405C210.244 29.405 211.789 31.325 211.789 34.355C211.789 37.415 210.244 39.335 208.144 39.335C206.044 39.335 204.499 37.415 204.499 34.355C204.499 31.325 206.044 29.405 208.144 29.405ZM208.144 31.22C207.109 31.22 206.404 32.315 206.404 34.355C206.404 36.425 207.109 37.535 208.144 37.535C209.179 37.535 209.869 36.425 209.869 34.355C209.869 32.315 209.179 31.22 208.144 31.22ZM219.378 35.6H229.143V37.16H219.378V35.6ZM217.908 39.125H230.478V40.745H217.908V39.125ZM219.378 29.45H229.023V31.055H221.403V36.035H219.378V29.45ZM220.788 32.51H228.708V34.055H220.788V32.51ZM233.252 32.195H242.882V33.77H233.252V32.195ZM231.692 35.21H244.277V36.8H231.692V35.21ZM233.252 28.94H235.232V32.975H233.252V28.94ZM233.117 40.445H242.957V42.035H233.117V40.445ZM233.117 37.91H235.112V40.865H233.117V37.91ZM259.422 28.445H261.312V42.335H259.422V28.445ZM257.562 33.785H259.872V35.39H257.562V33.785ZM256.317 28.685H258.162V41.675H256.317V28.685ZM249.777 37.565H250.752C252.462 37.565 253.887 37.505 255.537 37.205L255.687 38.825C254.007 39.155 252.537 39.2 250.752 39.2H249.777V37.565ZM249.777 30.05H254.907V31.655H251.757V38.345H249.777V30.05ZM272.126 28.46H274.121V38.84H272.126V28.46ZM273.551 32.69H275.966V34.325H273.551V32.69ZM263.186 29.9H271.361V31.46H263.186V29.9ZM267.281 31.955C269.276 31.955 270.686 33.05 270.686 34.64C270.686 36.23 269.276 37.31 267.281 37.31C265.271 37.31 263.861 36.23 263.861 34.64C263.861 33.05 265.271 31.955 267.281 31.955ZM267.281 33.47C266.396 33.47 265.781 33.89 265.781 34.64C265.781 35.39 266.396 35.795 267.281 35.795C268.166 35.795 268.781 35.39 268.781 34.64C268.781 33.89 268.166 33.47 267.281 33.47ZM266.276 28.43H268.271V30.665H266.276V28.43ZM265.166 40.505H274.616V42.095H265.166V40.505ZM265.166 38.06H267.161V41.195H265.166V38.06ZM277.69 29.54H284.425V36.26H277.69V29.54ZM282.475 31.115H279.64V34.685H282.475V31.115ZM286.525 28.46H288.535V38.33H286.525V28.46ZM279.28 40.445H288.88V42.05H279.28V40.445ZM279.28 37.43H281.275V41.15H279.28V37.43ZM292.329 29.03H301.134V30.62H292.329V29.03ZM290.799 33.83H303.369V35.42H290.799V33.83ZM296.064 34.955H298.059V37.865H296.064V34.955ZM299.934 29.03H301.899V30.14C301.899 31.34 301.899 32.735 301.464 34.565L299.499 34.37C299.934 32.585 299.934 31.31 299.934 30.14V29.03ZM292.059 37.37H301.914V42.335H299.919V38.945H292.059V37.37ZM316.009 31.805H318.649V33.425H316.009V31.805ZM318.109 28.445H320.104V36.695H318.109V28.445ZM315.394 36.995C318.334 36.995 320.149 38 320.149 39.68C320.149 41.375 318.334 42.35 315.394 42.35C312.454 42.35 310.639 41.375 310.639 39.68C310.639 38 312.454 36.995 315.394 36.995ZM315.394 38.51C313.594 38.51 312.634 38.885 312.634 39.68C312.634 40.46 313.594 40.835 315.394 40.835C317.209 40.835 318.169 40.46 318.169 39.68C318.169 38.885 317.209 38.51 315.394 38.51ZM311.689 29.84H313.309V30.71C313.309 33.365 312.079 35.795 309.424 36.695L308.404 35.12C310.699 34.34 311.689 32.495 311.689 30.71V29.84ZM312.109 29.84H313.714V30.71C313.714 32.345 314.659 34.04 316.849 34.775L315.874 36.35C313.294 35.495 312.109 33.185 312.109 30.71V29.84ZM308.944 29.285H316.414V30.875H308.944V29.285ZM331.818 28.46H333.828V38.585H331.818V28.46ZM324.573 40.505H334.173V42.095H324.573V40.505ZM324.573 37.61H326.568V41.33H324.573V37.61ZM325.533 29.21H327.183V30.56C327.183 33.275 325.938 35.78 323.238 36.725L322.233 35.135C324.558 34.34 325.533 32.405 325.533 30.56V29.21ZM325.938 29.21H327.573V30.56C327.573 32.375 328.518 34.16 330.798 34.895L329.778 36.485C327.153 35.6 325.938 33.245 325.938 30.56V29.21ZM345.617 28.445H347.627V35.555H345.617V28.445ZM338.357 36.11H347.627V39.845H340.337V41.3H338.387V38.45H345.647V37.625H338.357V36.11ZM338.387 40.715H347.972V42.245H338.387V40.715ZM339.452 29.765H341.072V30.305C341.072 32.765 339.767 34.955 337.052 35.72L336.137 34.16C338.447 33.515 339.452 31.895 339.452 30.305V29.765ZM339.887 29.765H341.492V30.305C341.492 31.775 342.482 33.29 344.747 33.905L343.832 35.435C341.162 34.715 339.887 32.63 339.887 30.305V29.765ZM336.662 29.075H344.222V30.65H336.662V29.075ZM358.905 28.445H360.9V39.305H358.905V28.445ZM360.195 32.99H362.64V34.61H360.195V32.99ZM351.63 40.505H361.365V42.095H351.63V40.505ZM351.63 38.6H353.64V40.97H351.63V38.6ZM353.025 35.12H355.02V37.145H353.025V35.12ZM349.935 37.955L349.71 36.425C352.125 36.425 355.47 36.38 358.29 35.96L358.44 37.325C355.56 37.865 352.305 37.925 349.935 37.955ZM350.07 29.555H357.945V30.995H350.07V29.555ZM354.015 31.355C356.055 31.355 357.39 32.165 357.39 33.515C357.39 34.835 356.055 35.66 354.015 35.66C351.975 35.66 350.625 34.835 350.625 33.515C350.625 32.165 351.975 31.355 354.015 31.355ZM354.015 32.69C353.07 32.69 352.515 32.96 352.515 33.515C352.515 34.04 353.07 34.31 354.015 34.31C354.945 34.31 355.5 34.04 355.5 33.515C355.5 32.96 354.945 32.69 354.015 32.69ZM353.025 28.385H355.02V30.17H353.025V28.385ZM377.111 28.46H379.121V38.435H377.111V28.46ZM369.866 40.505H379.466V42.095H369.866V40.505ZM369.866 37.43H371.861V41.15H369.866V37.43ZM371.561 29.33C373.691 29.33 375.326 30.8 375.326 32.855C375.326 34.895 373.691 36.38 371.561 36.38C369.431 36.38 367.781 34.895 367.781 32.855C367.781 30.8 369.431 29.33 371.561 29.33ZM371.561 31.055C370.526 31.055 369.731 31.715 369.731 32.855C369.731 33.98 370.526 34.64 371.561 34.64C372.581 34.64 373.376 33.98 373.376 32.855C373.376 31.715 372.581 31.055 371.561 31.055ZM384.625 29.075H386.275V30.41C386.275 33.035 385 35.42 382.285 36.29L381.31 34.715C383.65 33.965 384.625 32.165 384.625 30.41V29.075ZM385.03 29.075H386.665V30.41C386.665 32.12 387.625 33.8 389.89 34.49L388.915 36.05C386.26 35.21 385.03 32.99 385.03 30.41V29.075ZM383.44 37.34H392.92V42.335H390.91V38.93H383.44V37.34ZM390.91 28.445H392.92V36.725H390.91V28.445ZM402.608 32.03H405.848V33.635H402.608V32.03ZM404.798 28.46H406.793V38.585H404.798V28.46ZM397.628 40.505H407.108V42.095H397.628V40.505ZM397.628 37.73H399.623V41.45H397.628V37.73ZM398.378 30.275H399.998V31.145C399.998 33.755 398.768 36.17 396.098 37.055L395.093 35.465C397.388 34.715 398.378 32.9 398.378 31.145V30.275ZM398.798 30.275H400.403V31.145C400.403 32.765 401.348 34.49 403.538 35.225L402.563 36.785C399.983 35.93 398.798 33.62 398.798 31.145V30.275ZM395.633 29.39H403.103V30.965H395.633V29.39ZM417.997 28.445H419.992V39.305H417.997V28.445ZM419.287 32.99H421.732V34.61H419.287V32.99ZM410.722 40.505H420.457V42.095H410.722V40.505ZM410.722 38.6H412.732V40.97H410.722V38.6ZM412.117 35.12H414.112V37.145H412.117V35.12ZM409.027 37.955L408.802 36.425C411.217 36.425 414.562 36.38 417.382 35.96L417.532 37.325C414.652 37.865 411.397 37.925 409.027 37.955ZM409.162 29.555H417.037V30.995H409.162V29.555ZM413.107 31.355C415.147 31.355 416.482 32.165 416.482 33.515C416.482 34.835 415.147 35.66 413.107 35.66C411.067 35.66 409.717 34.835 409.717 33.515C409.717 32.165 411.067 31.355 413.107 31.355ZM413.107 32.69C412.162 32.69 411.607 32.96 411.607 33.515C411.607 34.04 412.162 34.31 413.107 34.31C414.037 34.31 414.592 34.04 414.592 33.515C414.592 32.96 414.037 32.69 413.107 32.69ZM412.117 28.385H414.112V30.17H412.117V28.385ZM430.833 29.315H432.768C432.768 32.915 431.328 35.42 427.518 36.995L426.588 35.57C429.753 34.325 430.833 32.495 430.833 29.96V29.315ZM427.308 29.315H431.448V30.905H427.308V29.315ZM430.923 31.85V33.2L426.978 33.635L426.738 32.06L430.923 31.85ZM436.608 28.445H438.498V36.575H436.608V28.445ZM434.943 31.67H437.148V33.29H434.943V31.67ZM433.578 28.7H435.438V36.47H433.578V28.7ZM429.093 37.115H438.498V42.185H429.093V37.115ZM436.548 38.675H431.058V40.61H436.548V38.675ZM450.616 28.445H452.521V42.335H450.616V28.445ZM446.551 33.5H448.411V35.255H446.551V33.5ZM447.856 28.715H449.731V41.69H447.856V28.715ZM440.566 30.005H446.881V31.595H440.566V30.005ZM440.536 39.185L440.326 37.565C442.066 37.565 444.991 37.52 447.091 37.235L447.226 38.675C445.066 39.14 442.246 39.185 440.536 39.185ZM441.421 31.025H443.206V37.985H441.421V31.025ZM444.211 31.025H446.011V37.985H444.211V31.025ZM463.8 28.46H465.81V38.435H463.8V28.46ZM456.555 40.505H466.155V42.095H456.555V40.505ZM456.555 37.43H458.55V41.15H456.555V37.43ZM458.25 29.33C460.38 29.33 462.015 30.8 462.015 32.855C462.015 34.895 460.38 36.38 458.25 36.38C456.12 36.38 454.47 34.895 454.47 32.855C454.47 30.8 456.12 29.33 458.25 29.33ZM458.25 31.055C457.215 31.055 456.42 31.715 456.42 32.855C456.42 33.98 457.215 34.64 458.25 34.64C459.27 34.64 460.065 33.98 460.065 32.855C460.065 31.715 459.27 31.055 458.25 31.055ZM472.529 29.36C474.719 29.36 476.354 30.785 476.354 32.78C476.354 34.79 474.719 36.215 472.529 36.215C470.354 36.215 468.689 34.79 468.689 32.78C468.689 30.785 470.354 29.36 472.529 29.36ZM472.529 31.07C471.464 31.07 470.654 31.7 470.654 32.78C470.654 33.875 471.464 34.505 472.529 34.505C473.594 34.505 474.404 33.875 474.404 32.78C474.404 31.7 473.594 31.07 472.529 31.07ZM477.659 28.43H479.654V42.365H477.659V28.43ZM468.359 39.545L468.119 37.94C470.564 37.94 473.969 37.91 476.894 37.475L477.044 38.915C474.029 39.515 470.759 39.545 468.359 39.545ZM489.669 28.85C491.784 28.85 493.374 30.17 493.374 32.03C493.374 33.875 491.784 35.195 489.669 35.195C487.554 35.195 485.964 33.875 485.964 32.03C485.964 30.17 487.554 28.85 489.669 28.85ZM489.669 30.47C488.649 30.47 487.884 31.04 487.884 32.03C487.884 33.02 488.649 33.59 489.669 33.59C490.689 33.59 491.439 33.02 491.439 32.03C491.439 31.04 490.689 30.47 489.669 30.47ZM495.294 28.445H497.304V35.39H495.294V28.445ZM488.034 35.96H497.304V39.77H490.014V41.45H488.064V38.33H495.324V37.505H488.034V35.96ZM488.064 40.64H497.649V42.185H488.064V40.64ZM508.583 28.445H510.578V39.305H508.583V28.445ZM509.873 32.99H512.318V34.61H509.873V32.99ZM501.308 40.505H511.043V42.095H501.308V40.505ZM501.308 38.6H503.318V40.97H501.308V38.6ZM502.703 35.12H504.698V37.145H502.703V35.12ZM499.613 37.955L499.388 36.425C501.803 36.425 505.148 36.38 507.968 35.96L508.118 37.325C505.238 37.865 501.983 37.925 499.613 37.955ZM499.748 29.555H507.623V30.995H499.748V29.555ZM503.693 31.355C505.733 31.355 507.068 32.165 507.068 33.515C507.068 34.835 505.733 35.66 503.693 35.66C501.653 35.66 500.303 34.835 500.303 33.515C500.303 32.165 501.653 31.355 503.693 31.355ZM503.693 32.69C502.748 32.69 502.193 32.96 502.193 33.515C502.193 34.04 502.748 34.31 503.693 34.31C504.623 34.31 505.178 34.04 505.178 33.515C505.178 32.96 504.623 32.69 503.693 32.69ZM502.703 28.385H504.698V30.17H502.703V28.385ZM522.892 28.445H524.902V35.915H522.892V28.445ZM515.662 36.515H517.627V37.805H522.922V36.515H524.902V42.185H515.662V36.515ZM517.627 39.335V40.595H522.922V39.335H517.627ZM517.342 29.015C519.502 29.015 521.107 30.38 521.107 32.3C521.107 34.22 519.502 35.585 517.342 35.585C515.182 35.585 513.562 34.22 513.562 32.3C513.562 30.38 515.182 29.015 517.342 29.015ZM517.342 30.665C516.277 30.665 515.512 31.28 515.512 32.3C515.512 33.335 516.277 33.935 517.342 33.935C518.392 33.935 519.157 33.335 519.157 32.3C519.157 31.28 518.392 30.665 517.342 30.665ZM536.766 28.445H538.761V42.335H536.766V28.445ZM527.886 29.765H529.866V38.39H527.886V29.765ZM527.886 37.22H529.116C531.141 37.22 533.391 37.07 535.686 36.62L535.911 38.27C533.526 38.765 531.231 38.915 529.116 38.915H527.886V37.22ZM549.83 28.43H551.84V42.365H549.83V28.43ZM551.39 33.575H553.85V35.21H551.39V33.575ZM541.49 37.37H542.66C545 37.37 546.845 37.295 548.885 36.935L549.08 38.585C546.98 38.96 545.075 39.02 542.66 39.02H541.49V37.37ZM541.49 29.72H547.97V31.325H543.47V38.165H541.49V29.72ZM554.898 39.875C554.898 39.385 555.033 39.045 555.303 38.855C555.583 38.655 555.918 38.555 556.308 38.555C556.688 38.555 557.013 38.655 557.283 38.855C557.553 39.045 557.688 39.385 557.688 39.875C557.688 40.335 557.553 40.67 557.283 40.88C557.013 41.09 556.688 41.195 556.308 41.195C555.918 41.195 555.583 41.09 555.303 40.88C555.033 40.67 554.898 40.335 554.898 39.875Z" fill="#0E0E0E"/>
<path d="M1514.89 32.38H1518.97V33.97H1514.89V32.38ZM1514.89 35.755H1518.97V37.345H1514.89V35.755ZM1518.23 30.46H1520.23V40.615H1518.23V30.46ZM1511.06 42.505H1520.54V44.095H1511.06V42.505ZM1511.06 39.61H1513.06V43.33H1511.06V39.61ZM1512.44 31.27C1514.5 31.27 1516.1 32.77 1516.1 34.87C1516.1 36.94 1514.5 38.455 1512.44 38.455C1510.37 38.455 1508.77 36.94 1508.77 34.87C1508.77 32.77 1510.37 31.27 1512.44 31.27ZM1512.44 33.025C1511.42 33.025 1510.67 33.715 1510.67 34.87C1510.67 36.025 1511.42 36.715 1512.44 36.715C1513.45 36.715 1514.21 36.025 1514.21 34.87C1514.21 33.715 1513.45 33.025 1512.44 33.025ZM1522.89 36.79H1524.06C1526.79 36.79 1528.47 36.73 1530.39 36.37L1530.57 37.96C1528.62 38.335 1526.87 38.41 1524.06 38.41H1522.89V36.79ZM1522.88 31.21H1529.22V35.485H1524.87V37.555H1522.89V34H1527.26V32.8H1522.88V31.21ZM1531.34 30.46H1533.33V38.89H1531.34V30.46ZM1532.76 33.76H1535.18V35.395H1532.76V33.76ZM1524.06 39.52H1533.33V44.335H1531.34V41.11H1524.06V39.52ZM1545.86 30.43H1547.85V44.365H1545.86V30.43ZM1543.41 35.77H1546.31V37.375H1543.41V35.77ZM1539.41 34.045H1540.97V34.765C1540.97 37.69 1539.71 40.645 1537.19 41.77L1536.12 40.24C1538.37 39.205 1539.41 36.85 1539.41 34.765V34.045ZM1539.84 34.045H1541.39V34.765C1541.39 36.76 1542.45 39.01 1544.7 40.015L1543.65 41.53C1541.1 40.45 1539.84 37.6 1539.84 34.765V34.045ZM1536.59 32.71H1544.16V34.285H1536.59V32.71ZM1539.41 30.76H1541.4V33.52H1539.41V30.76ZM1550.15 41.875C1550.15 41.385 1550.28 41.045 1550.55 40.855C1550.83 40.655 1551.17 40.555 1551.56 40.555C1551.94 40.555 1552.26 40.655 1552.53 40.855C1552.8 41.045 1552.94 41.385 1552.94 41.875C1552.94 42.335 1552.8 42.67 1552.53 42.88C1552.26 43.09 1551.94 43.195 1551.56 43.195C1551.17 43.195 1550.83 43.09 1550.55 42.88C1550.28 42.67 1550.15 42.335 1550.15 41.875ZM1550.15 35.95C1550.15 35.46 1550.28 35.12 1550.55 34.93C1550.83 34.73 1551.17 34.63 1551.56 34.63C1551.94 34.63 1552.26 34.73 1552.53 34.93C1552.8 35.12 1552.94 35.46 1552.94 35.95C1552.94 36.41 1552.8 36.745 1552.53 36.955C1552.26 37.165 1551.94 37.27 1551.56 37.27C1551.17 37.27 1550.83 37.165 1550.55 36.955C1550.28 36.745 1550.15 36.41 1550.15 35.95ZM1558.23 46.6C1557.99 46.6 1557.73 46.58 1557.45 46.54C1557.16 46.51 1556.92 46.47 1556.73 46.42V44.44C1556.9 44.48 1557.06 44.51 1557.21 44.53C1557.36 44.56 1557.52 44.575 1557.7 44.575C1557.97 44.575 1558.2 44.49 1558.39 44.32C1558.58 44.16 1558.68 43.83 1558.68 43.33V34.765H1561.21V43.795C1561.21 44.295 1561.11 44.755 1560.91 45.175C1560.72 45.605 1560.41 45.95 1559.97 46.21C1559.54 46.47 1558.96 46.6 1558.23 46.6ZM1558.6 32.665C1558.6 32.205 1558.73 31.895 1558.99 31.735C1559.25 31.575 1559.57 31.495 1559.95 31.495C1560.32 31.495 1560.64 31.575 1560.91 31.735C1561.18 31.895 1561.32 32.205 1561.32 32.665C1561.32 33.115 1561.18 33.425 1560.91 33.595C1560.64 33.755 1560.32 33.835 1559.95 33.835C1559.57 33.835 1559.25 33.755 1558.99 33.595C1558.73 33.425 1558.6 33.115 1558.6 32.665ZM1566.94 43.15C1566.12 43.15 1565.41 43.005 1564.81 42.715C1564.22 42.415 1563.76 41.955 1563.44 41.335C1563.13 40.705 1562.98 39.9 1562.98 38.92C1562.98 37.92 1563.15 37.105 1563.5 36.475C1563.86 35.835 1564.36 35.365 1564.99 35.065C1565.62 34.765 1566.34 34.615 1567.15 34.615C1567.69 34.615 1568.17 34.67 1568.6 34.78C1569.04 34.89 1569.43 35.03 1569.77 35.2L1569.04 37.105C1568.69 36.965 1568.36 36.85 1568.06 36.76C1567.76 36.67 1567.46 36.625 1567.15 36.625C1566.81 36.625 1566.52 36.71 1566.28 36.88C1566.04 37.04 1565.85 37.29 1565.72 37.63C1565.6 37.97 1565.54 38.395 1565.54 38.905C1565.54 39.415 1565.61 39.835 1565.74 40.165C1565.87 40.485 1566.05 40.725 1566.29 40.885C1566.53 41.045 1566.82 41.125 1567.16 41.125C1567.6 41.125 1568.01 41.06 1568.39 40.93C1568.78 40.8 1569.15 40.625 1569.5 40.405V42.475C1569.16 42.695 1568.79 42.865 1568.39 42.985C1567.99 43.095 1567.51 43.15 1566.94 43.15ZM1573.83 33.595C1573.83 34.095 1573.81 34.545 1573.78 34.945C1573.75 35.335 1573.73 35.62 1573.71 35.8H1573.84C1574.02 35.51 1574.23 35.28 1574.46 35.11C1574.69 34.94 1574.95 34.815 1575.24 34.735C1575.53 34.655 1575.84 34.615 1576.17 34.615C1576.74 34.615 1577.24 34.72 1577.68 34.93C1578.12 35.14 1578.47 35.465 1578.72 35.905C1578.98 36.345 1579.11 36.92 1579.11 37.63V43H1576.57V38.335C1576.57 37.755 1576.48 37.325 1576.29 37.045C1576.11 36.755 1575.81 36.61 1575.4 36.61C1575 36.61 1574.69 36.715 1574.46 36.925C1574.23 37.125 1574.06 37.42 1573.96 37.81C1573.87 38.2 1573.83 38.68 1573.83 39.25V43H1571.29V31.6H1573.83V33.595ZM1584.93 34.6C1586 34.6 1586.83 34.85 1587.42 35.35C1588.01 35.84 1588.3 36.57 1588.3 37.54V43H1586.55L1586.05 41.89H1585.99C1585.76 42.18 1585.52 42.42 1585.27 42.61C1585.03 42.8 1584.75 42.935 1584.43 43.015C1584.12 43.105 1583.74 43.15 1583.28 43.15C1582.8 43.15 1582.36 43.055 1581.97 42.865C1581.59 42.675 1581.29 42.385 1581.07 41.995C1580.85 41.605 1580.74 41.11 1580.74 40.51C1580.74 39.63 1581.05 38.98 1581.66 38.56C1582.28 38.14 1583.18 37.905 1584.37 37.855L1585.78 37.81V37.57C1585.78 37.17 1585.68 36.88 1585.47 36.7C1585.27 36.52 1584.99 36.43 1584.63 36.43C1584.27 36.43 1583.89 36.49 1583.5 36.61C1583.11 36.72 1582.72 36.86 1582.32 37.03L1581.55 35.35C1582 35.11 1582.51 34.925 1583.08 34.795C1583.65 34.665 1584.27 34.6 1584.93 34.6ZM1585.02 39.28C1584.39 39.3 1583.95 39.415 1583.7 39.625C1583.45 39.825 1583.32 40.1 1583.32 40.45C1583.32 40.76 1583.41 40.985 1583.59 41.125C1583.77 41.265 1584 41.335 1584.28 41.335C1584.7 41.335 1585.06 41.21 1585.35 40.96C1585.64 40.7 1585.78 40.35 1585.78 39.91V39.25L1585.02 39.28ZM1590.96 43L1594.82 34.42H1589.84V32.29H1597.53V33.85L1593.62 43H1590.96ZM1602.69 36.07C1603.32 36.07 1603.89 36.2 1604.39 36.46C1604.89 36.72 1605.28 37.1 1605.57 37.6C1605.86 38.09 1606.01 38.695 1606.01 39.415C1606.01 40.205 1605.85 40.88 1605.53 41.44C1605.21 41.99 1604.73 42.415 1604.09 42.715C1603.46 43.005 1602.66 43.15 1601.7 43.15C1601.11 43.15 1600.57 43.1 1600.07 43C1599.57 42.9 1599.13 42.755 1598.75 42.565V40.42C1599.12 40.6 1599.56 40.76 1600.08 40.9C1600.61 41.04 1601.1 41.11 1601.55 41.11C1601.96 41.11 1602.3 41.055 1602.57 40.945C1602.85 40.825 1603.07 40.655 1603.22 40.435C1603.37 40.205 1603.44 39.915 1603.44 39.565C1603.44 39.095 1603.28 38.735 1602.95 38.485C1602.63 38.225 1602.13 38.095 1601.46 38.095C1601.19 38.095 1600.92 38.125 1600.64 38.185C1600.36 38.235 1600.12 38.285 1599.92 38.335L1598.94 37.84L1599.35 32.29H1605.29V34.435H1601.54L1601.37 36.22C1601.54 36.19 1601.72 36.16 1601.9 36.13C1602.08 36.09 1602.34 36.07 1602.69 36.07ZM1614.83 37.645C1614.83 38.515 1614.76 39.29 1614.62 39.97C1614.49 40.64 1614.28 41.215 1613.98 41.695C1613.68 42.165 1613.29 42.525 1612.81 42.775C1612.33 43.025 1611.74 43.15 1611.04 43.15C1610.16 43.15 1609.44 42.93 1608.88 42.49C1608.32 42.05 1607.9 41.42 1607.63 40.6C1607.37 39.78 1607.24 38.795 1607.24 37.645C1607.24 36.485 1607.36 35.495 1607.6 34.675C1607.84 33.855 1608.24 33.225 1608.8 32.785C1609.36 32.345 1610.11 32.125 1611.04 32.125C1611.91 32.125 1612.62 32.345 1613.18 32.785C1613.74 33.225 1614.16 33.855 1614.43 34.675C1614.7 35.495 1614.83 36.485 1614.83 37.645ZM1609.78 37.645C1609.78 38.415 1609.81 39.055 1609.88 39.565C1609.96 40.065 1610.09 40.445 1610.27 40.705C1610.45 40.965 1610.71 41.095 1611.04 41.095C1611.37 41.095 1611.62 40.97 1611.8 40.72C1611.98 40.46 1612.11 40.075 1612.18 39.565C1612.26 39.055 1612.3 38.415 1612.3 37.645C1612.3 36.885 1612.26 36.25 1612.18 35.74C1612.11 35.22 1611.98 34.83 1611.8 34.57C1611.62 34.31 1611.37 34.18 1611.04 34.18C1610.71 34.18 1610.45 34.31 1610.27 34.57C1610.09 34.83 1609.96 35.215 1609.88 35.725C1609.81 36.235 1609.78 36.875 1609.78 37.645ZM1623.5 37.645C1623.5 38.515 1623.43 39.29 1623.29 39.97C1623.16 40.64 1622.95 41.215 1622.65 41.695C1622.35 42.165 1621.96 42.525 1621.48 42.775C1621 43.025 1620.41 43.15 1619.71 43.15C1618.83 43.15 1618.11 42.93 1617.55 42.49C1616.99 42.05 1616.57 41.42 1616.3 40.6C1616.04 39.78 1615.91 38.795 1615.91 37.645C1615.91 36.485 1616.03 35.495 1616.27 34.675C1616.51 33.855 1616.91 33.225 1617.47 32.785C1618.03 32.345 1618.78 32.125 1619.71 32.125C1620.58 32.125 1621.29 32.345 1621.85 32.785C1622.41 33.225 1622.83 33.855 1623.1 34.675C1623.37 35.495 1623.5 36.485 1623.5 37.645ZM1618.45 37.645C1618.45 38.415 1618.48 39.055 1618.55 39.565C1618.63 40.065 1618.76 40.445 1618.94 40.705C1619.12 40.965 1619.38 41.095 1619.71 41.095C1620.04 41.095 1620.29 40.97 1620.47 40.72C1620.65 40.46 1620.78 40.075 1620.85 39.565C1620.93 39.055 1620.97 38.415 1620.97 37.645C1620.97 36.885 1620.93 36.25 1620.85 35.74C1620.78 35.22 1620.65 34.83 1620.47 34.57C1620.29 34.31 1620.04 34.18 1619.71 34.18C1619.38 34.18 1619.12 34.31 1618.94 34.57C1618.76 34.83 1618.63 35.215 1618.55 35.725C1618.48 36.235 1618.45 36.875 1618.45 37.645ZM1628.39 32.155C1629.05 32.155 1629.64 32.25 1630.16 32.44C1630.69 32.63 1631.11 32.915 1631.42 33.295C1631.73 33.675 1631.89 34.155 1631.89 34.735C1631.89 35.165 1631.8 35.545 1631.63 35.875C1631.47 36.195 1631.25 36.475 1630.97 36.715C1630.69 36.955 1630.37 37.165 1630 37.345C1630.36 37.545 1630.71 37.775 1631.05 38.035C1631.39 38.295 1631.66 38.6 1631.87 38.95C1632.09 39.3 1632.2 39.715 1632.2 40.195C1632.2 40.775 1632.05 41.29 1631.75 41.74C1631.46 42.18 1631.03 42.525 1630.46 42.775C1629.89 43.025 1629.2 43.15 1628.38 43.15C1627.54 43.15 1626.83 43.03 1626.26 42.79C1625.69 42.55 1625.26 42.21 1624.97 41.77C1624.69 41.33 1624.55 40.82 1624.55 40.24C1624.55 39.74 1624.64 39.315 1624.82 38.965C1625 38.615 1625.24 38.315 1625.54 38.065C1625.84 37.805 1626.18 37.585 1626.56 37.405C1626.25 37.205 1625.97 36.98 1625.71 36.73C1625.46 36.47 1625.26 36.18 1625.11 35.86C1624.96 35.53 1624.88 35.15 1624.88 34.72C1624.88 34.15 1625.04 33.675 1625.35 33.295C1625.67 32.915 1626.09 32.63 1626.62 32.44C1627.16 32.25 1627.75 32.155 1628.39 32.155ZM1626.91 40.105C1626.91 40.455 1627.03 40.74 1627.28 40.96C1627.53 41.18 1627.89 41.29 1628.35 41.29C1628.7 41.29 1628.98 41.245 1629.19 41.155C1629.41 41.055 1629.57 40.92 1629.68 40.75C1629.79 40.57 1629.85 40.37 1629.85 40.15C1629.85 39.9 1629.77 39.68 1629.62 39.49C1629.48 39.29 1629.31 39.115 1629.1 38.965C1628.9 38.815 1628.7 38.69 1628.51 38.59L1628.32 38.47C1628.05 38.6 1627.8 38.745 1627.58 38.905C1627.37 39.065 1627.21 39.245 1627.09 39.445C1626.97 39.635 1626.91 39.855 1626.91 40.105ZM1628.38 34C1628.07 34 1627.81 34.085 1627.6 34.255C1627.39 34.415 1627.28 34.645 1627.28 34.945C1627.28 35.145 1627.33 35.325 1627.42 35.485C1627.52 35.645 1627.65 35.79 1627.82 35.92C1627.99 36.05 1628.18 36.165 1628.38 36.265C1628.57 36.175 1628.75 36.07 1628.92 35.95C1629.09 35.83 1629.22 35.69 1629.32 35.53C1629.43 35.37 1629.49 35.175 1629.49 34.945C1629.49 34.645 1629.38 34.415 1629.16 34.255C1628.95 34.085 1628.69 34 1628.38 34ZM1645.5 37.555C1645.5 38.015 1645.44 38.475 1645.32 38.935C1645.21 39.385 1645.04 39.795 1644.81 40.165C1644.58 40.525 1644.29 40.815 1643.94 41.035C1643.6 41.255 1643.2 41.365 1642.75 41.365C1642.38 41.365 1642.05 41.285 1641.75 41.125C1641.46 40.955 1641.24 40.73 1641.09 40.45H1640.97C1640.76 40.7 1640.49 40.915 1640.16 41.095C1639.84 41.275 1639.46 41.365 1639.02 41.365C1638.11 41.365 1637.41 41.095 1636.93 40.555C1636.46 40.015 1636.23 39.305 1636.23 38.425C1636.23 37.755 1636.37 37.165 1636.66 36.655C1636.95 36.135 1637.37 35.725 1637.91 35.425C1638.45 35.125 1639.1 34.975 1639.86 34.975C1640.34 34.975 1640.82 35.02 1641.31 35.11C1641.8 35.2 1642.2 35.295 1642.5 35.395L1642.35 38.47C1642.34 38.55 1642.33 38.65 1642.33 38.77C1642.33 38.89 1642.33 38.99 1642.33 39.07C1642.33 39.4 1642.38 39.625 1642.47 39.745C1642.56 39.855 1642.67 39.91 1642.8 39.91C1643 39.91 1643.17 39.805 1643.31 39.595C1643.45 39.375 1643.55 39.085 1643.62 38.725C1643.69 38.365 1643.73 37.97 1643.73 37.54C1643.73 36.74 1643.57 36.06 1643.26 35.5C1642.95 34.93 1642.51 34.495 1641.93 34.195C1641.36 33.885 1640.68 33.73 1639.89 33.73C1639.12 33.73 1638.44 33.85 1637.85 34.09C1637.27 34.33 1636.78 34.67 1636.38 35.11C1635.99 35.55 1635.69 36.07 1635.49 36.67C1635.29 37.27 1635.19 37.92 1635.19 38.62C1635.19 39.47 1635.35 40.2 1635.66 40.81C1635.97 41.42 1636.43 41.885 1637.04 42.205C1637.65 42.525 1638.4 42.685 1639.3 42.685C1639.87 42.685 1640.48 42.62 1641.13 42.49C1641.78 42.36 1642.39 42.195 1642.95 41.995V43.525C1642.45 43.735 1641.89 43.9 1641.28 44.02C1640.68 44.14 1640.05 44.2 1639.38 44.2C1638.13 44.2 1637.05 43.975 1636.15 43.525C1635.26 43.085 1634.58 42.45 1634.1 41.62C1633.63 40.79 1633.39 39.795 1633.39 38.635C1633.39 37.725 1633.54 36.885 1633.84 36.115C1634.15 35.335 1634.59 34.655 1635.15 34.075C1635.72 33.495 1636.4 33.045 1637.19 32.725C1637.99 32.395 1638.88 32.23 1639.86 32.23C1640.69 32.23 1641.45 32.355 1642.14 32.605C1642.83 32.845 1643.42 33.195 1643.92 33.655C1644.42 34.115 1644.81 34.675 1645.08 35.335C1645.36 35.985 1645.5 36.725 1645.5 37.555ZM1638.09 38.44C1638.09 38.96 1638.19 39.335 1638.39 39.565C1638.6 39.795 1638.87 39.91 1639.21 39.91C1639.67 39.91 1639.99 39.74 1640.17 39.4C1640.36 39.05 1640.48 38.545 1640.52 37.885L1640.61 36.49C1640.5 36.47 1640.39 36.455 1640.28 36.445C1640.18 36.435 1640.06 36.43 1639.93 36.43C1639.49 36.43 1639.14 36.525 1638.87 36.715C1638.6 36.905 1638.4 37.155 1638.27 37.465C1638.15 37.765 1638.09 38.09 1638.09 38.44ZM1649.91 34.615C1650.45 34.615 1650.91 34.72 1651.29 34.93C1651.67 35.14 1651.99 35.43 1652.24 35.8H1652.3L1652.49 34.765H1654.65V43.015C1654.65 43.795 1654.5 44.45 1654.19 44.98C1653.88 45.51 1653.41 45.91 1652.78 46.18C1652.15 46.46 1651.36 46.6 1650.41 46.6C1649.79 46.6 1649.22 46.565 1648.71 46.495C1648.21 46.425 1647.73 46.3 1647.26 46.12V44.065C1647.6 44.205 1647.93 44.32 1648.25 44.41C1648.58 44.51 1648.92 44.58 1649.27 44.62C1649.63 44.67 1650.01 44.695 1650.41 44.695C1650.99 44.695 1651.42 44.56 1651.7 44.29C1651.99 44.03 1652.13 43.64 1652.13 43.12V42.955C1652.13 42.805 1652.14 42.64 1652.15 42.46C1652.17 42.28 1652.19 42.105 1652.21 41.935H1652.13C1651.89 42.325 1651.59 42.625 1651.22 42.835C1650.85 43.045 1650.4 43.15 1649.87 43.15C1648.94 43.15 1648.2 42.78 1647.65 42.04C1647.11 41.3 1646.84 40.25 1646.84 38.89C1646.84 37.97 1646.96 37.195 1647.21 36.565C1647.46 35.925 1647.82 35.44 1648.28 35.11C1648.75 34.78 1649.29 34.615 1649.91 34.615ZM1650.8 36.61C1650.49 36.61 1650.23 36.7 1650.02 36.88C1649.81 37.05 1649.65 37.305 1649.55 37.645C1649.45 37.985 1649.4 38.415 1649.4 38.935C1649.4 39.705 1649.52 40.275 1649.75 40.645C1649.98 41.005 1650.34 41.185 1650.83 41.185C1651.1 41.185 1651.32 41.15 1651.5 41.08C1651.69 41 1651.84 40.88 1651.95 40.72C1652.07 40.55 1652.16 40.34 1652.22 40.09C1652.28 39.84 1652.31 39.54 1652.31 39.19V38.875C1652.31 38.365 1652.26 37.945 1652.16 37.615C1652.06 37.275 1651.9 37.025 1651.68 36.865C1651.46 36.695 1651.17 36.61 1650.8 36.61ZM1666.68 34.615C1667.62 34.615 1668.33 34.855 1668.81 35.335C1669.3 35.805 1669.54 36.57 1669.54 37.63V43H1667.02V38.335C1667.02 37.735 1666.93 37.3 1666.74 37.03C1666.56 36.75 1666.28 36.61 1665.9 36.61C1665.37 36.61 1664.99 36.82 1664.77 37.24C1664.55 37.65 1664.44 38.24 1664.44 39.01V43H1661.92V38.335C1661.92 37.945 1661.88 37.625 1661.8 37.375C1661.72 37.115 1661.6 36.925 1661.44 36.805C1661.28 36.675 1661.07 36.61 1660.81 36.61C1660.44 36.61 1660.15 36.715 1659.93 36.925C1659.72 37.125 1659.57 37.42 1659.48 37.81C1659.4 38.2 1659.36 38.68 1659.36 39.25V43H1656.82V34.765H1658.74L1659.1 35.8H1659.21C1659.37 35.54 1659.57 35.325 1659.81 35.155C1660.05 34.975 1660.32 34.84 1660.63 34.75C1660.94 34.66 1661.28 34.615 1661.64 34.615C1662.24 34.615 1662.74 34.715 1663.15 34.915C1663.56 35.115 1663.88 35.405 1664.11 35.785H1664.26C1664.52 35.395 1664.87 35.105 1665.3 34.915C1665.73 34.715 1666.19 34.615 1666.68 34.615ZM1675.37 34.6C1676.44 34.6 1677.27 34.85 1677.86 35.35C1678.45 35.84 1678.74 36.57 1678.74 37.54V43H1676.99L1676.49 41.89H1676.43C1676.2 42.18 1675.96 42.42 1675.71 42.61C1675.47 42.8 1675.19 42.935 1674.87 43.015C1674.56 43.105 1674.18 43.15 1673.72 43.15C1673.24 43.15 1672.8 43.055 1672.41 42.865C1672.03 42.675 1671.73 42.385 1671.51 41.995C1671.29 41.605 1671.18 41.11 1671.18 40.51C1671.18 39.63 1671.49 38.98 1672.1 38.56C1672.72 38.14 1673.62 37.905 1674.81 37.855L1676.22 37.81V37.57C1676.22 37.17 1676.12 36.88 1675.91 36.7C1675.71 36.52 1675.43 36.43 1675.07 36.43C1674.71 36.43 1674.33 36.49 1673.94 36.61C1673.55 36.72 1673.16 36.86 1672.76 37.03L1671.99 35.35C1672.44 35.11 1672.95 34.925 1673.52 34.795C1674.09 34.665 1674.71 34.6 1675.37 34.6ZM1675.46 39.28C1674.83 39.3 1674.39 39.415 1674.14 39.625C1673.89 39.825 1673.76 40.1 1673.76 40.45C1673.76 40.76 1673.85 40.985 1674.03 41.125C1674.21 41.265 1674.44 41.335 1674.72 41.335C1675.14 41.335 1675.5 41.21 1675.79 40.96C1676.08 40.7 1676.22 40.35 1676.22 39.91V39.25L1675.46 39.28ZM1683.41 34.765V43H1680.89V34.765H1683.41ZM1682.17 31.495C1682.53 31.495 1682.84 31.575 1683.11 31.735C1683.38 31.895 1683.52 32.205 1683.52 32.665C1683.52 33.115 1683.38 33.425 1683.11 33.595C1682.84 33.755 1682.53 33.835 1682.17 33.835C1681.79 33.835 1681.46 33.755 1681.19 33.595C1680.93 33.425 1680.8 33.115 1680.8 32.665C1680.8 32.205 1680.93 31.895 1681.19 31.735C1681.46 31.575 1681.79 31.495 1682.17 31.495ZM1688.13 43H1685.59V31.6H1688.13V43ZM1689.97 41.875C1689.97 41.385 1690.1 41.045 1690.37 40.855C1690.65 40.655 1690.99 40.555 1691.38 40.555C1691.76 40.555 1692.08 40.655 1692.35 40.855C1692.62 41.045 1692.76 41.385 1692.76 41.875C1692.76 42.335 1692.62 42.67 1692.35 42.88C1692.08 43.09 1691.76 43.195 1691.38 43.195C1690.99 43.195 1690.65 43.09 1690.37 42.88C1690.1 42.67 1689.97 42.335 1689.97 41.875ZM1698.14 43.15C1697.32 43.15 1696.61 43.005 1696.01 42.715C1695.42 42.415 1694.97 41.955 1694.65 41.335C1694.34 40.705 1694.18 39.9 1694.18 38.92C1694.18 37.92 1694.36 37.105 1694.71 36.475C1695.07 35.835 1695.56 35.365 1696.19 35.065C1696.82 34.765 1697.54 34.615 1698.35 34.615C1698.89 34.615 1699.38 34.67 1699.81 34.78C1700.25 34.89 1700.64 35.03 1700.98 35.2L1700.24 37.105C1699.89 36.965 1699.57 36.85 1699.27 36.76C1698.97 36.67 1698.66 36.625 1698.35 36.625C1698.01 36.625 1697.72 36.71 1697.48 36.88C1697.24 37.04 1697.06 37.29 1696.93 37.63C1696.81 37.97 1696.75 38.395 1696.75 38.905C1696.75 39.415 1696.81 39.835 1696.94 40.165C1697.07 40.485 1697.26 40.725 1697.5 40.885C1697.74 41.045 1698.03 41.125 1698.37 41.125C1698.81 41.125 1699.22 41.06 1699.6 40.93C1699.99 40.8 1700.36 40.625 1700.71 40.405V42.475C1700.37 42.695 1700 42.865 1699.6 42.985C1699.2 43.095 1698.71 43.15 1698.14 43.15ZM1710.16 38.86C1710.16 39.55 1710.07 40.16 1709.88 40.69C1709.7 41.22 1709.43 41.67 1709.07 42.04C1708.72 42.41 1708.29 42.69 1707.79 42.88C1707.3 43.06 1706.74 43.15 1706.1 43.15C1705.52 43.15 1704.98 43.06 1704.48 42.88C1703.99 42.69 1703.56 42.415 1703.2 42.055C1702.85 41.685 1702.58 41.235 1702.38 40.705C1702.18 40.165 1702.08 39.55 1702.08 38.86C1702.08 37.95 1702.24 37.18 1702.56 36.55C1702.89 35.92 1703.36 35.44 1703.97 35.11C1704.58 34.78 1705.3 34.615 1706.14 34.615C1706.93 34.615 1707.63 34.78 1708.23 35.11C1708.83 35.44 1709.3 35.92 1709.64 36.55C1709.99 37.18 1710.16 37.95 1710.16 38.86ZM1704.64 38.86C1704.64 39.37 1704.69 39.8 1704.79 40.15C1704.89 40.5 1705.05 40.765 1705.27 40.945C1705.49 41.115 1705.78 41.2 1706.13 41.2C1706.49 41.2 1706.77 41.115 1706.98 40.945C1707.19 40.765 1707.35 40.5 1707.45 40.15C1707.55 39.8 1707.6 39.37 1707.6 38.86C1707.6 38.35 1707.55 37.925 1707.45 37.585C1707.35 37.245 1707.19 36.99 1706.97 36.82C1706.76 36.65 1706.47 36.565 1706.11 36.565C1705.6 36.565 1705.23 36.76 1704.99 37.15C1704.76 37.53 1704.64 38.1 1704.64 38.86ZM1721.76 34.615C1722.7 34.615 1723.41 34.855 1723.89 35.335C1724.38 35.805 1724.62 36.57 1724.62 37.63V43H1722.1V38.335C1722.1 37.735 1722.01 37.3 1721.82 37.03C1721.64 36.75 1721.36 36.61 1720.98 36.61C1720.45 36.61 1720.07 36.82 1719.85 37.24C1719.63 37.65 1719.52 38.24 1719.52 39.01V43H1717V38.335C1717 37.945 1716.96 37.625 1716.88 37.375C1716.8 37.115 1716.68 36.925 1716.52 36.805C1716.36 36.675 1716.15 36.61 1715.89 36.61C1715.52 36.61 1715.23 36.715 1715.01 36.925C1714.8 37.125 1714.65 37.42 1714.56 37.81C1714.48 38.2 1714.44 38.68 1714.44 39.25V43H1711.9V34.765H1713.82L1714.18 35.8H1714.29C1714.45 35.54 1714.65 35.325 1714.89 35.155C1715.13 34.975 1715.4 34.84 1715.71 34.75C1716.02 34.66 1716.36 34.615 1716.72 34.615C1717.32 34.615 1717.82 34.715 1718.23 34.915C1718.64 35.115 1718.96 35.405 1719.19 35.785H1719.34C1719.6 35.395 1719.95 35.105 1720.38 34.915C1720.81 34.715 1721.27 34.615 1721.76 34.615Z" fill="#0E0E0E"/>
</svg>
