<svg width="1118" height="655" viewBox="0 0 1118 655" fill="none" xmlns="http://www.w3.org/2000/svg">
<path d="M995 0L995 510.756L904 553L817 500.267L742 543L673 500.267L583 543L502 500.267L422 535L342 492.775L260 535L170 500.267L69 535L5.87629e-06 492.775L0 1.18653e-05L995 0Z" fill="#363636"/>
<g filter="url(#filter0_d_134_4)">
<path d="M936 634.399L910.5 645.649L899 627.149L936 608.126L936 634.399Z" fill="#2E2E2E"/>
<path d="M209 590.773L191 607.273L160 584.273L203 566.773L209 590.773Z" fill="#2E2E2E"/>
<path d="M758 602.936L737 593.436L741 579.936L768 586.436L758 602.936Z" fill="#2E2E2E"/>
<path d="M936 634.399L910.5 645.649L899 627.149L936 608.126L936 634.399Z" stroke="black"/>
<path d="M209 590.773L191 607.273L160 584.273L203 566.773L209 590.773Z" stroke="black"/>
<path d="M758 602.936L737 593.436L741 579.936L768 586.436L758 602.936Z" stroke="black"/>
</g>
<path d="M104.04 60.5195H109.4V97.5595H104.04V60.5195ZM87.72 70.1195H91.92V72.0395C91.92 79.8795 88.44 87.7595 81.6 90.7195L78.76 86.6395C84.84 83.9195 87.72 77.6395 87.72 72.0395V70.1195ZM88.88 70.1195H93.04V72.0395C93.04 77.3595 95.96 83.4395 102.08 86.0395L99.24 90.1195C92.4 87.2795 88.88 79.6395 88.88 72.0395V70.1195ZM80 66.5595H100.6V70.7595H80V66.5595ZM87.72 61.3595H93.04V68.7195H87.72V61.3595ZM123.917 82.1195H129.117V90.8395H123.917V82.1195ZM135.637 82.0795H140.837V90.8395H135.637V82.0795ZM115.437 89.1595H148.957V93.4795H115.437V89.1595ZM119.197 62.9195H145.197V75.1995H124.557V81.4795H119.277V71.0395H139.917V67.1195H119.197V62.9195ZM119.277 79.2395H146.037V83.5195H119.277V79.2395ZM152.194 77.1195H185.754V80.9995H152.194V77.1195ZM155.954 82.8395H181.754V91.6395H161.314V94.7995H156.034V88.2795H176.514V86.4395H155.954V82.8395ZM156.034 93.6795H182.794V97.2795H156.034V93.6795ZM156.314 61.1595H181.674V69.8795H161.634V72.9195H156.354V66.5595H176.434V64.7195H156.314V61.1595ZM156.354 71.7995H182.354V75.3995H156.354V71.7995ZM213.461 79.1195H218.781V85.6395H213.461V79.1195ZM199.381 77.3595H232.861V81.5595H199.381V77.3595ZM216.061 84.1995C224.061 84.1995 228.901 86.5995 228.901 90.8795C228.901 95.1595 224.061 97.5595 216.061 97.5595C208.021 97.5595 203.181 95.1595 203.181 90.8795C203.181 86.5995 208.021 84.1995 216.061 84.1995ZM216.061 88.1995C211.101 88.1995 208.581 89.0395 208.581 90.8795C208.581 92.6795 211.101 93.5595 216.061 93.5595C221.021 93.5595 223.541 92.6795 223.541 90.8795C223.541 89.0395 221.021 88.1995 216.061 88.1995ZM212.461 63.9995H217.181V64.9195C217.181 70.4795 212.181 75.0395 202.621 75.9195L200.781 71.7595C208.901 71.0795 212.461 67.7995 212.461 64.9195V63.9995ZM215.061 63.9995H219.781V64.9195C219.781 67.8395 223.301 71.0795 231.461 71.7595L229.621 75.9195C220.101 75.0395 215.061 70.5195 215.061 64.9195V63.9995ZM202.421 62.0395H229.861V66.2395H202.421V62.0395ZM259.978 60.5195H265.338V87.0395H259.978V60.5195ZM263.818 70.8395H270.258V75.1995H263.818V70.8395ZM249.658 63.2795H255.338C255.338 73.3595 249.178 80.2795 238.138 83.4795L235.898 79.2395C244.978 76.7595 249.658 71.7995 249.658 65.9195V63.2795ZM237.498 63.2795H252.538V67.5595H237.498V63.2795ZM241.378 92.6795H266.578V96.9195H241.378V92.6795ZM241.378 84.3595H246.738V94.5595H241.378V84.3595ZM287.775 74.1595H293.855V78.4395H287.775V74.1595ZM299.735 60.5195H304.815V97.5595H299.735V60.5195ZM292.175 61.0795H297.175V95.8795H292.175V61.0795ZM281.295 63.1195C286.215 63.1195 289.375 68.1995 289.375 76.5595C289.375 84.9595 286.215 90.0395 281.295 90.0395C276.415 90.0395 273.295 84.9595 273.295 76.5595C273.295 68.1995 276.415 63.1195 281.295 63.1195ZM281.295 68.1195C279.295 68.1195 278.135 70.9195 278.135 76.5595C278.135 82.2395 279.295 84.9995 281.295 84.9995C283.375 84.9995 284.535 82.2395 284.535 76.5595C284.535 70.9195 283.375 68.1195 281.295 68.1195ZM320.203 89.0795H353.723V93.4395H320.203V89.0795ZM334.203 80.7195H339.523V91.0395H334.203V80.7195ZM322.763 63.5595H350.963V67.7995H322.763V63.5595ZM322.923 78.3195H350.843V82.4795H322.923V78.3195ZM327.803 67.0795H333.123V78.7995H327.803V67.0795ZM340.643 67.0795H345.923V78.7995H340.643V67.0795ZM382.479 60.5195H387.839V97.5595H382.479V60.5195ZM371.559 64.3595H376.839C376.839 75.6795 372.999 84.9595 359.839 91.3195L357.079 87.0795C367.719 81.9595 371.559 75.2395 371.559 65.3195V64.3595ZM359.039 64.3595H374.079V68.5595H359.039V64.3595ZM417.516 60.5195H422.796V97.5595H417.516V60.5195ZM421.596 74.9595H428.156V79.3995H421.596V74.9595ZM393.596 65.9995H415.156V70.2395H393.596V65.9995ZM404.436 72.3195C409.836 72.3195 413.836 75.9995 413.836 81.1595C413.836 86.3195 409.836 89.9995 404.436 89.9995C399.036 89.9995 395.036 86.3195 395.036 81.1595C395.036 75.9995 399.036 72.3195 404.436 72.3195ZM404.436 76.6395C401.916 76.6395 400.116 78.3195 400.116 81.1595C400.116 83.9995 401.916 85.6795 404.436 85.6795C406.956 85.6795 408.756 83.9995 408.756 81.1595C408.756 78.3195 406.956 76.6395 404.436 76.6395ZM401.756 61.1195H407.076V67.5995H401.756V61.1195ZM434.713 70.5195H460.393V74.7195H434.713V70.5195ZM430.553 78.5595H464.113V82.7995H430.553V78.5595ZM434.713 61.8395H439.993V72.5995H434.713V61.8395ZM434.353 92.5195H460.593V96.7595H434.353V92.5195ZM434.353 85.7595H439.673V93.6395H434.353V85.7595ZM503.141 60.4795H508.501V97.6395H503.141V60.4795ZM488.541 63.0795C494.141 63.0795 498.261 68.1995 498.261 76.2795C498.261 84.4395 494.141 89.5595 488.541 89.5595C482.941 89.5595 478.821 84.4395 478.821 76.2795C478.821 68.1995 482.941 63.0795 488.541 63.0795ZM488.541 67.9195C485.781 67.9195 483.901 70.8395 483.901 76.2795C483.901 81.7995 485.781 84.7595 488.541 84.7595C491.301 84.7595 493.141 81.7995 493.141 76.2795C493.141 70.8395 491.301 67.9195 488.541 67.9195ZM522.098 83.9195H527.538V97.5595H522.098V83.9195ZM534.898 83.9195H540.338V97.5595H534.898V83.9195ZM514.538 81.1195H548.098V85.3995H514.538V81.1195ZM531.218 61.7595C539.138 61.7595 544.618 64.9995 544.618 70.0795C544.618 75.0795 539.138 78.3195 531.218 78.3195C523.338 78.3195 517.858 75.0795 517.858 70.0795C517.858 64.9995 523.338 61.7595 531.218 61.7595ZM531.218 65.9995C526.378 65.9995 523.298 67.4395 523.298 70.0795C523.298 72.6795 526.378 74.1195 531.218 74.1195C536.098 74.1195 539.138 72.6795 539.138 70.0795C539.138 67.4395 536.098 65.9995 531.218 65.9995ZM555.494 70.5195H581.174V74.7195H555.494V70.5195ZM551.334 78.5595H584.894V82.7995H551.334V78.5595ZM555.494 61.8395H560.774V72.5995H555.494V61.8395ZM555.134 92.5195H581.374V96.7595H555.134V92.5195ZM555.134 85.7595H560.454V93.6395H555.134V85.7595ZM592.091 82.6795C592.091 81.8528 592.198 81.1062 592.411 80.4395C592.651 79.7462 593.038 79.1062 593.571 78.5195C594.105 77.9062 594.825 77.2928 595.731 76.6795C596.585 76.0928 597.238 75.5862 597.691 75.1595C598.145 74.7328 598.465 74.3195 598.651 73.9195C598.838 73.4928 598.931 73.0528 598.931 72.5995C598.931 71.9062 598.638 71.3728 598.051 70.9995C597.491 70.5995 596.731 70.3995 595.771 70.3995C594.705 70.3995 593.611 70.5728 592.491 70.9195C591.371 71.2662 590.211 71.7595 589.011 72.3995L586.611 67.6395C587.971 66.8395 589.451 66.2128 591.051 65.7595C592.651 65.2795 594.385 65.0395 596.251 65.0395C599.105 65.0395 601.318 65.7062 602.891 67.0395C604.491 68.3462 605.291 70.0395 605.291 72.1195C605.291 73.1862 605.118 74.1328 604.771 74.9595C604.451 75.7862 603.945 76.5595 603.251 77.2795C602.585 77.9728 601.705 78.6928 600.611 79.4395C599.838 79.9728 599.225 80.4262 598.771 80.7995C598.345 81.1728 598.051 81.5328 597.891 81.8795C597.731 82.2262 597.651 82.6528 597.651 83.1595V84.2395H592.091V82.6795ZM591.371 90.9995C591.371 89.6928 591.731 88.7862 592.451 88.2795C593.171 87.7462 594.065 87.4795 595.131 87.4795C596.118 87.4795 596.971 87.7462 597.691 88.2795C598.438 88.7862 598.811 89.6928 598.811 90.9995C598.811 92.2262 598.438 93.1195 597.691 93.6795C596.971 94.2395 596.118 94.5195 595.131 94.5195C594.065 94.5195 593.171 94.2395 592.451 93.6795C591.731 93.1195 591.371 92.2262 591.371 90.9995Z" fill="#FF7373"/>
<path d="M114.704 196.544C114.704 198.635 114.256 200.448 113.36 201.984C112.507 203.52 111.333 204.779 109.84 205.76C108.389 206.741 106.725 207.467 104.848 207.936V208.128C108.517 208.555 111.291 209.664 113.168 211.456C115.088 213.248 116.048 215.659 116.048 218.688C116.048 221.333 115.387 223.723 114.064 225.856C112.784 227.947 110.779 229.611 108.048 230.848C105.36 232.043 101.883 232.64 97.616 232.64C95.0987 232.64 92.752 232.427 90.576 232C88.4 231.573 86.352 230.955 84.432 230.144V221.952C86.3947 222.933 88.4427 223.68 90.576 224.192C92.752 224.704 94.7574 224.96 96.592 224.96C100.048 224.96 102.459 224.363 103.824 223.168C105.232 221.973 105.936 220.288 105.936 218.112C105.936 216.832 105.616 215.765 104.976 214.912C104.336 214.016 103.205 213.355 101.584 212.928C100.005 212.459 97.7867 212.224 94.928 212.224H91.472V204.8H94.992C97.808 204.8 99.9414 204.544 101.392 204.032C102.885 203.477 103.888 202.752 104.4 201.856C104.955 200.917 105.232 199.851 105.232 198.656C105.232 197.035 104.72 195.776 103.696 194.88C102.715 193.941 101.051 193.472 98.704 193.472C97.2534 193.472 95.9307 193.664 94.736 194.048C93.5414 194.389 92.4534 194.816 91.472 195.328C90.5334 195.84 89.7014 196.331 88.976 196.8L84.496 190.144C85.6907 189.291 87.0134 188.523 88.464 187.84C89.9574 187.157 91.6 186.624 93.392 186.24C95.184 185.856 97.1894 185.664 99.408 185.664C104.101 185.664 107.813 186.624 110.544 188.544C113.317 190.421 114.704 193.088 114.704 196.544ZM136.929 185.728C139.574 185.728 141.985 186.133 144.161 186.944C146.38 187.755 148.15 188.971 149.473 190.592C150.838 192.213 151.521 194.261 151.521 196.736C151.521 198.571 151.158 200.192 150.433 201.6C149.708 202.965 148.726 204.16 147.489 205.184C146.294 206.208 144.908 207.104 143.329 207.872C144.95 208.725 146.486 209.728 147.937 210.88C149.43 211.989 150.625 213.312 151.521 214.848C152.46 216.341 152.929 218.112 152.929 220.16C152.929 222.677 152.246 224.875 150.881 226.752C149.558 228.629 147.681 230.08 145.249 231.104C142.86 232.128 140.086 232.64 136.929 232.64C133.516 232.64 130.614 232.149 128.225 231.168C125.836 230.187 124.001 228.779 122.721 226.944C121.484 225.109 120.865 222.933 120.865 220.416C120.865 218.325 121.249 216.512 122.017 214.976C122.828 213.44 123.894 212.117 125.217 211.008C126.54 209.856 128.012 208.896 129.633 208.128C128.268 207.275 127.03 206.315 125.921 205.248C124.812 204.139 123.916 202.901 123.233 201.536C122.593 200.128 122.273 198.507 122.273 196.672C122.273 194.24 122.956 192.213 124.321 190.592C125.686 188.971 127.478 187.755 129.697 186.944C131.958 186.133 134.369 185.728 136.929 185.728ZM129.825 219.84C129.825 221.504 130.401 222.869 131.553 223.936C132.748 225.003 134.497 225.536 136.801 225.536C138.422 225.536 139.745 225.301 140.769 224.832C141.836 224.363 142.625 223.701 143.137 222.848C143.692 221.995 143.969 221.013 143.969 219.904C143.969 218.752 143.628 217.749 142.945 216.896C142.262 216 141.409 215.211 140.385 214.528C139.404 213.803 138.38 213.141 137.313 212.544L136.481 212.096C135.158 212.693 133.985 213.376 132.961 214.144C131.98 214.912 131.212 215.765 130.657 216.704C130.102 217.6 129.825 218.645 129.825 219.84ZM136.865 192.768C135.286 192.768 133.964 193.173 132.897 193.984C131.873 194.795 131.361 195.947 131.361 197.44C131.361 198.464 131.617 199.381 132.129 200.192C132.641 200.96 133.324 201.643 134.177 202.24C135.03 202.795 135.948 203.328 136.929 203.84C137.91 203.371 138.806 202.859 139.617 202.304C140.47 201.749 141.153 201.088 141.665 200.32C142.177 199.509 142.433 198.549 142.433 197.44C142.433 195.947 141.9 194.795 140.833 193.984C139.809 193.173 138.486 192.768 136.865 192.768ZM158.898 227.52C158.898 225.557 159.431 224.192 160.498 223.424C161.565 222.613 162.866 222.208 164.402 222.208C165.895 222.208 167.175 222.613 168.242 223.424C169.309 224.192 169.842 225.557 169.842 227.52C169.842 229.397 169.309 230.763 168.242 231.616C167.175 232.427 165.895 232.832 164.402 232.832C162.866 232.832 161.565 232.427 160.498 231.616C159.431 230.763 158.898 229.397 158.898 227.52ZM209.02 222.528H203.516V232H194.108V222.528H174.588V215.808L194.62 186.304H203.516V215.04H209.02V222.528ZM194.108 207.296C194.108 206.571 194.108 205.717 194.108 204.736C194.151 203.712 194.193 202.709 194.236 201.728C194.279 200.704 194.321 199.808 194.364 199.04C194.407 198.229 194.449 197.675 194.492 197.376H194.236C193.852 198.229 193.447 199.061 193.02 199.872C192.593 200.683 192.081 201.515 191.484 202.368L183.1 215.04H194.108V207.296ZM222.861 185.664C226.445 185.664 229.154 186.923 230.989 189.44C232.866 191.915 233.805 195.413 233.805 199.936C233.805 204.459 232.93 208 231.181 210.56C229.432 213.077 226.658 214.336 222.861 214.336C220.514 214.336 218.53 213.76 216.909 212.608C215.33 211.456 214.136 209.813 213.325 207.68C212.514 205.504 212.109 202.923 212.109 199.936C212.109 195.413 212.962 191.915 214.669 189.44C216.376 186.923 219.106 185.664 222.861 185.664ZM222.925 192.192C221.901 192.192 221.154 192.832 220.685 194.112C220.216 195.392 219.981 197.355 219.981 200C219.981 202.603 220.216 204.565 220.685 205.888C221.154 207.211 221.901 207.872 222.925 207.872C223.949 207.872 224.696 207.211 225.165 205.888C225.677 204.565 225.933 202.603 225.933 200C225.933 197.355 225.677 195.392 225.165 194.112C224.696 192.832 223.949 192.192 222.925 192.192ZM255.309 186.304L229.965 232H222.477L247.821 186.304H255.309ZM254.861 203.904C257.25 203.904 259.256 204.48 260.877 205.632C262.498 206.741 263.714 208.363 264.525 210.496C265.378 212.587 265.805 215.147 265.805 218.176C265.805 222.699 264.93 226.24 263.181 228.8C261.432 231.317 258.658 232.576 254.861 232.576C252.514 232.576 250.53 232 248.909 230.848C247.33 229.696 246.136 228.053 245.325 225.92C244.514 223.744 244.109 221.163 244.109 218.176C244.109 213.653 244.962 210.155 246.669 207.68C248.376 205.163 251.106 203.904 254.861 203.904ZM254.925 210.432C253.901 210.432 253.154 211.072 252.685 212.352C252.216 213.632 251.981 215.595 251.981 218.24C251.981 220.843 252.216 222.805 252.685 224.128C253.154 225.451 253.901 226.112 254.925 226.112C255.949 226.112 256.696 225.472 257.165 224.192C257.677 222.869 257.933 220.885 257.933 218.24C257.933 215.595 257.677 213.632 257.165 212.352C256.696 211.072 255.949 210.432 254.925 210.432Z" fill="#BD7676"/>
<path d="M299.696 202.136H302.264V202.4C302.264 205.688 300.296 208.376 296.024 209.24L294.752 206.768C298.184 206.144 299.696 204.32 299.696 202.4V202.136ZM300.344 202.136H302.912V202.4C302.912 204.2 304.4 205.856 307.76 206.456L306.512 208.904C302.312 208.112 300.344 205.544 300.344 202.4V202.136ZM295.352 200.12H307.232V202.568H295.352V200.12ZM299.696 197.96H302.912V201.872H299.696V197.96ZM299.672 210.536H302.864V219.464H299.672V210.536ZM309.392 197.912H312.56V220.136H309.392V197.912ZM294.416 212.768L294.032 210.176C298.064 210.176 303.464 210.152 308.12 209.528L308.336 211.832C303.536 212.696 298.376 212.768 294.416 212.768ZM327.27 202.808H332.838V205.376H327.27V202.808ZM322.182 198.824C325.518 198.824 328.038 201.056 328.038 204.128C328.038 207.224 325.518 209.432 322.182 209.432C318.822 209.432 316.302 207.224 316.302 204.128C316.302 201.056 318.822 198.824 322.182 198.824ZM322.182 201.488C320.55 201.488 319.35 202.472 319.35 204.128C319.35 205.784 320.55 206.792 322.182 206.792C323.814 206.792 324.99 205.784 324.99 204.128C324.99 202.472 323.814 201.488 322.182 201.488ZM331.446 197.912H334.638V209.864H331.446V197.912ZM319.878 210.824H323.046V212.936H331.47V210.824H334.638V219.896H319.878V210.824ZM323.046 215.384V217.352H331.47V215.384H323.046ZM346.996 206.096H350.644V208.664H346.996V206.096ZM354.172 197.912H357.22V220.136H354.172V197.912ZM349.636 198.248H352.636V219.128H349.636V198.248ZM343.108 199.472C346.06 199.472 347.956 202.52 347.956 207.536C347.956 212.576 346.06 215.624 343.108 215.624C340.18 215.624 338.308 212.576 338.308 207.536C338.308 202.52 340.18 199.472 343.108 199.472ZM343.108 202.472C341.908 202.472 341.212 204.152 341.212 207.536C341.212 210.944 341.908 212.6 343.108 212.6C344.356 212.6 345.052 210.944 345.052 207.536C345.052 204.152 344.356 202.472 343.108 202.472ZM382.485 197.912H385.509V220.136H382.485V197.912ZM379.509 206.456H383.205V209.024H379.509V206.456ZM377.517 198.296H380.469V219.08H377.517V198.296ZM367.053 212.504H368.613C371.349 212.504 373.629 212.408 376.269 211.928L376.509 214.52C373.821 215.048 371.469 215.12 368.613 215.12H367.053V212.504ZM367.053 200.48H375.261V203.048H370.221V213.752H367.053V200.48ZM402.811 197.936H406.003V214.544H402.811V197.936ZM405.091 204.704H408.955V207.32H405.091V204.704ZM388.507 200.24H401.587V202.736H388.507V200.24ZM395.059 203.528C398.251 203.528 400.507 205.28 400.507 207.824C400.507 210.368 398.251 212.096 395.059 212.096C391.843 212.096 389.587 210.368 389.587 207.824C389.587 205.28 391.843 203.528 395.059 203.528ZM395.059 205.952C393.643 205.952 392.659 206.624 392.659 207.824C392.659 209.024 393.643 209.672 395.059 209.672C396.475 209.672 397.459 209.024 397.459 207.824C397.459 206.624 396.475 205.952 395.059 205.952ZM393.451 197.888H396.643V201.464H393.451V197.888ZM391.675 217.208H406.795V219.752H391.675V217.208ZM391.675 213.296H394.867V218.312H391.675V213.296ZM424.979 199.184H428.315C428.315 205.04 424.715 209.072 418.211 210.848L416.963 208.376C422.291 206.936 424.979 204.104 424.979 200.696V199.184ZM418.187 199.184H427.187V201.704H418.187V199.184ZM420.275 211.712H435.419V220.064H432.227V214.232H420.275V211.712ZM432.227 197.912H435.419V210.824H432.227V197.912ZM428.531 203.312H432.803V205.904H428.531V203.312ZM450.946 203.288H455.17V205.88H450.946V203.288ZM454.306 197.912H457.498V211.112H454.306V197.912ZM449.962 211.592C454.666 211.592 457.57 213.2 457.57 215.888C457.57 218.6 454.666 220.16 449.962 220.16C445.258 220.16 442.354 218.6 442.354 215.888C442.354 213.2 445.258 211.592 449.962 211.592ZM449.962 214.016C447.082 214.016 445.546 214.616 445.546 215.888C445.546 217.136 447.082 217.736 449.962 217.736C452.866 217.736 454.402 217.136 454.402 215.888C454.402 214.616 452.866 214.016 449.962 214.016ZM444.034 200.144H446.626V201.536C446.626 205.784 444.658 209.672 440.41 211.112L438.778 208.592C442.45 207.344 444.034 204.392 444.034 201.536V200.144ZM444.706 200.144H447.274V201.536C447.274 204.152 448.786 206.864 452.29 208.04L450.73 210.56C446.602 209.192 444.706 205.496 444.706 201.536V200.144ZM439.642 199.256H451.594V201.8H439.642V199.256Z" fill="white"/>
<path d="M743.384 186.616H745.976V189.856C745.976 195.568 744.008 200.728 739.592 202.768L737.696 200.128C741.56 198.448 743.384 194.176 743.384 189.856V186.616ZM744.008 186.616H746.6V189.856C746.6 193.96 748.352 198.04 752.144 199.672L750.272 202.24C745.976 200.272 744.008 195.328 744.008 189.856V186.616ZM753.2 184.888H756.416V207.184H753.2V184.888ZM774.318 184.912H777.534V200.824H774.318V184.912ZM776.622 191.104H780.486V193.72H776.622V191.104ZM768.126 186.568H771.534C771.534 192.616 767.838 196.768 761.214 198.688L759.87 196.144C765.318 194.656 768.126 191.68 768.126 188.152V186.568ZM760.83 186.568H769.854V189.136H760.83V186.568ZM763.158 204.208H778.278V206.752H763.158V204.208ZM763.158 199.216H766.374V205.336H763.158V199.216ZM797.356 184.888H800.572V207.184H797.356V184.888ZM788.596 186.448C791.956 186.448 794.428 189.52 794.428 194.368C794.428 199.264 791.956 202.336 788.596 202.336C785.236 202.336 782.764 199.264 782.764 194.368C782.764 189.52 785.236 186.448 788.596 186.448ZM788.596 189.352C786.94 189.352 785.812 191.104 785.812 194.368C785.812 197.68 786.94 199.456 788.596 199.456C790.252 199.456 791.356 197.68 791.356 194.368C791.356 191.104 790.252 189.352 788.596 189.352ZM815.781 188.416H818.325V190.912C818.325 196.048 816.237 201.064 812.061 202.96L810.261 200.44C813.981 198.784 815.781 194.68 815.781 190.912V188.416ZM816.501 188.416H819.021V190.912C819.021 194.512 820.797 198.352 824.517 199.888L822.789 202.408C818.565 200.584 816.501 195.856 816.501 190.912V188.416ZM811.149 187.048H823.605V189.664H811.149V187.048ZM825.669 184.912H828.885V207.136H825.669V184.912ZM849.091 193.312H853.003V195.928H849.091V193.312ZM846.715 184.888H849.931V207.112H846.715V184.888ZM833.179 187.024H836.371V200.824H833.179V187.024ZM833.179 199.048H835.099C838.267 199.048 841.699 198.832 845.275 198.112L845.611 200.728C841.939 201.496 838.363 201.688 835.099 201.688H833.179V199.048ZM865.313 188.392H870.905V190.936H865.313V188.392ZM865.313 193.168H871.001V195.712H865.313V193.168ZM855.497 186.688H866.009V197.56H855.497V186.688ZM862.865 189.208H858.641V195.064H862.865V189.208ZM869.993 184.936H873.185V201.112H869.993V184.936ZM858.473 204.208H873.665V206.752H858.473V204.208ZM858.473 199.576H861.689V205.528H858.473V199.576ZM737.936 221.248H748.568V223.792H737.936V221.248ZM743.288 224.776C746.12 224.776 748.16 226.96 748.16 230.08C748.16 233.176 746.12 235.36 743.288 235.36C740.48 235.36 738.416 233.176 738.416 230.08C738.416 226.96 740.48 224.776 743.288 224.776ZM743.288 227.44C742.088 227.44 741.248 228.4 741.248 230.08C741.248 231.76 742.088 232.696 743.288 232.696C744.488 232.696 745.352 231.76 745.352 230.08C745.352 228.4 744.488 227.44 743.288 227.44ZM754.016 217.912H757.064V240.136H754.016V217.912ZM751.352 226.936H755.024V229.504H751.352V226.936ZM749.36 218.32H752.336V239.2H749.36V218.32ZM741.728 218.512H744.872V222.856H741.728V218.512ZM775.446 217.912H778.638V229.072H775.446V217.912ZM768.03 218.752H771.51C771.51 224.656 768.102 228.112 761.358 229.576L760.302 227.008C765.87 225.904 768.03 223.456 768.03 220.48V218.752ZM761.574 218.752H769.374V221.296H761.574V218.752ZM770.646 220.672H775.854V223.096H770.646V220.672ZM770.502 224.992H775.734V227.392H770.502V224.992ZM763.95 229.888H778.638V236.008H767.19V238.768H763.998V233.656H775.446V232.384H763.95V229.888ZM763.998 237.424H779.094V239.92H763.998V237.424ZM784.156 223.072H794.956V225.472H784.156V223.072ZM784.156 218.8H794.74V221.2H787.444V224.128H784.156V218.8ZM787.9 224.56H791.116V227.896H787.9V224.56ZM797.5 217.912H800.692V229.576H797.5V217.912ZM782.62 229.432L782.26 227.008C786.556 227.008 791.764 226.96 796.3 226.528L796.468 228.664C791.812 229.336 786.796 229.432 782.62 229.432ZM785.596 230.368H800.692V236.272H788.764V238.336H785.62V233.968H797.548V232.816H785.596V230.368ZM785.62 237.52H801.22V239.992H785.62V237.52ZM825.837 217.912H829.029V232.648H825.837V217.912ZM822.021 223.792H826.293V226.36H822.021V223.792ZM818.517 219.592H821.877C821.877 225.664 818.733 229.624 812.037 231.736L810.693 229.24C816.261 227.584 818.517 224.728 818.517 220.984V219.592ZM811.845 219.592H820.869V222.136H811.845V219.592ZM819.957 231.016H822.669V231.76C822.669 235.84 819.669 239.152 814.245 240.088L813.021 237.568C817.725 236.848 819.957 234.28 819.957 231.76V231.016ZM820.413 231.016H823.125V231.76C823.125 234.256 825.333 236.824 830.061 237.544L828.789 240.064C823.365 239.152 820.413 235.84 820.413 231.76V231.016ZM853.045 217.912H856.237V229.552H853.045V217.912ZM855.349 222.472H859.189V225.064H855.349V222.472ZM846.709 219.4H850.261C850.261 225.304 846.685 228.688 839.941 229.936L838.669 227.416C844.477 226.456 846.709 224.032 846.709 221.368V219.4ZM839.725 219.4H848.725V221.944H839.725V219.4ZM841.669 230.416H856.333V232.744H844.861V238.696H841.669V230.416ZM841.669 237.568H856.789V239.896H841.669V237.568ZM843.877 234.016H856.093V236.248H843.877V234.016ZM866.771 219.448C870.155 219.448 872.603 222.52 872.603 227.368C872.603 232.264 870.155 235.336 866.771 235.336C863.387 235.336 860.939 232.264 860.939 227.368C860.939 222.52 863.387 219.448 866.771 219.448ZM866.771 222.352C865.115 222.352 864.011 224.104 864.011 227.368C864.011 230.68 865.115 232.456 866.771 232.456C868.427 232.456 869.555 230.68 869.555 227.368C869.555 224.104 868.427 222.352 866.771 222.352ZM875.027 217.912H878.243V240.136H875.027V217.912ZM877.523 226.288H881.459V228.928H877.523V226.288ZM894.106 224.848H899.962V227.416H894.106V224.848ZM888.058 219.616H890.65V222.832C890.65 228.424 888.754 233.584 884.578 235.672L882.586 233.104C886.378 231.352 888.058 227.056 888.058 222.832V219.616ZM888.73 219.616H891.274V222.832C891.274 227.056 892.882 231.112 896.554 232.744L894.658 235.288C890.482 233.272 888.73 228.376 888.73 222.832V219.616ZM898.378 217.888H901.546V240.184H898.378V217.888Z" fill="white"/>
<path d="M744.912 280.448C748.296 280.448 750.744 283.52 750.744 288.368C750.744 293.264 748.296 296.336 744.912 296.336C741.528 296.336 739.08 293.264 739.08 288.368C739.08 283.52 741.528 280.448 744.912 280.448ZM744.912 283.352C743.256 283.352 742.152 285.104 742.152 288.368C742.152 291.68 743.256 293.456 744.912 293.456C746.568 293.456 747.696 291.68 747.696 288.368C747.696 285.104 746.568 283.352 744.912 283.352ZM753.168 278.912H756.384V301.136H753.168V278.912ZM755.664 287.288H759.6V289.928H755.664V287.288ZM766.438 281.192H769.078V282.584C769.078 286.784 767.038 290.576 762.766 291.944L761.134 289.472C764.83 288.272 766.438 285.368 766.438 282.584V281.192ZM767.086 281.192H769.702V282.584C769.702 285.224 771.286 287.936 774.91 289.088L773.278 291.56C769.102 290.24 767.086 286.592 767.086 282.584V281.192ZM776.302 278.912H779.518V292.304H776.302V278.912ZM764.35 293.288H779.518V301.136H776.302V295.832H764.35V293.288ZM761.974 280.208H774.07V282.728H761.974V280.208ZM783.116 290.24H803.204V292.784H783.116V290.24ZM785.54 298.208H800.948V300.752H785.54V298.208ZM785.54 294.272H788.732V299.024H785.54V294.272ZM793.172 279.56C797.996 279.56 801.212 281.312 801.212 284.144C801.212 286.976 797.996 288.728 793.172 288.728C788.324 288.728 785.132 286.976 785.132 284.144C785.132 281.312 788.324 279.56 793.172 279.56ZM793.172 282.104C790.172 282.104 788.42 282.8 788.42 284.144C788.42 285.512 790.172 286.184 793.172 286.184C796.172 286.184 797.924 285.512 797.924 284.144C797.924 282.8 796.172 282.104 793.172 282.104ZM826.693 278.912H829.909V301.136H826.693V278.912ZM816.901 284.672H819.421V285.824C819.421 290.528 817.333 295.256 813.229 297.032L811.525 294.584C815.173 292.952 816.901 289.184 816.901 285.824V284.672ZM817.597 284.672H820.093V285.824C820.093 289.016 821.845 292.664 825.517 294.224L823.813 296.672C819.709 294.968 817.597 290.384 817.597 285.824V284.672ZM812.269 282.536H824.629V285.056H812.269V282.536ZM816.901 279.416H820.093V283.832H816.901V279.416ZM838.619 291.872H841.739V297.104H838.619V291.872ZM845.651 291.848H848.771V297.104H845.651V291.848ZM833.531 296.096H853.643V298.688H833.531V296.096ZM835.787 280.352H851.387V287.72H839.003V291.488H835.835V285.224H848.219V282.872H835.787V280.352ZM835.835 290.144H851.891V292.712H835.835V290.144ZM855.585 288.872H875.721V291.2H855.585V288.872ZM857.841 292.304H873.321V297.584H861.057V299.48H857.889V295.568H870.177V294.464H857.841V292.304ZM857.889 298.808H873.945V300.968H857.889V298.808ZM858.057 279.296H873.273V284.528H861.249V286.352H858.081V282.536H870.129V281.432H858.057V279.296ZM858.081 285.68H873.681V287.84H858.081V285.68ZM898.202 278.912H901.394V291.872H898.202V278.912ZM900.506 283.952H904.346V286.568H900.506V283.952ZM884.546 280.208H887.714V283.016H892.058V280.208H895.226V290.792H884.546V280.208ZM887.714 285.464V288.296H892.058V285.464H887.714ZM886.946 292.856H901.514V295.376H890.138V300.152H886.946V292.856ZM886.946 298.352H901.946V300.872H886.946V298.352ZM916.032 279.224C921.096 279.224 924.072 280.568 924.072 283.016C924.072 285.464 921.096 286.808 916.032 286.808C910.944 286.808 907.992 285.464 907.992 283.016C907.992 280.568 910.944 279.224 916.032 279.224ZM916.032 281.552C912.816 281.552 911.304 282.032 911.304 283.016C911.304 284.048 912.816 284.48 916.032 284.48C919.248 284.48 920.76 284.048 920.76 283.016C920.76 282.032 919.248 281.552 916.032 281.552ZM905.976 287.84H926.064V290.36H905.976V287.84ZM908.28 291.608H923.64V297.32H911.448V299.288H908.304V295.112H920.496V293.984H908.28V291.608ZM908.304 298.592H924.216V300.992H908.304V298.592ZM751.008 317.288H755.232V319.88H751.008V317.288ZM754.368 311.912H757.56V325.112H754.368V311.912ZM750.024 325.592C754.728 325.592 757.632 327.2 757.632 329.888C757.632 332.6 754.728 334.16 750.024 334.16C745.32 334.16 742.416 332.6 742.416 329.888C742.416 327.2 745.32 325.592 750.024 325.592ZM750.024 328.016C747.144 328.016 745.608 328.616 745.608 329.888C745.608 331.136 747.144 331.736 750.024 331.736C752.928 331.736 754.464 331.136 754.464 329.888C754.464 328.616 752.928 328.016 750.024 328.016ZM744.096 314.144H746.688V315.536C746.688 319.784 744.72 323.672 740.472 325.112L738.84 322.592C742.512 321.344 744.096 318.392 744.096 315.536V314.144ZM744.768 314.144H747.336V315.536C747.336 318.152 748.848 320.864 752.352 322.04L750.792 324.56C746.664 323.192 744.768 319.496 744.768 315.536V314.144ZM739.704 313.256H751.656V315.8H739.704V313.256ZM763.39 321.824H779.014V324.368H763.39V321.824ZM761.062 329.024H781.174V331.64H761.062V329.024ZM769.486 322.976H772.678V329.864H769.486V322.976ZM763.39 313.424H778.846V315.992H766.582V322.928H763.39V313.424ZM785.612 317.912H801.02V320.432H785.612V317.912ZM783.116 322.736H803.252V325.28H783.116V322.736ZM785.612 312.704H788.78V319.16H785.612V312.704ZM785.396 331.112H801.14V333.656H785.396V331.112ZM785.396 327.056H788.588V331.784H785.396V327.056ZM817.381 313.448C820.765 313.448 823.213 316.52 823.213 321.368C823.213 326.264 820.765 329.336 817.381 329.336C813.997 329.336 811.549 326.264 811.549 321.368C811.549 316.52 813.997 313.448 817.381 313.448ZM817.381 316.352C815.725 316.352 814.621 318.104 814.621 321.368C814.621 324.68 815.725 326.456 817.381 326.456C819.037 326.456 820.165 324.68 820.165 321.368C820.165 318.104 819.037 316.352 817.381 316.352ZM825.637 311.912H828.853V334.136H825.637V311.912ZM828.133 320.288H832.069V322.928H828.133V320.288ZM848.891 311.912H852.083V334.136H848.891V311.912ZM834.683 314.024H837.851V327.824H834.683V314.024ZM834.683 325.952H836.651C839.891 325.952 843.491 325.712 847.163 324.992L847.523 327.632C843.707 328.424 840.035 328.664 836.651 328.664H834.683V325.952ZM869.841 311.888H873.009V334.184H869.841V311.888ZM872.289 320.288H876.225V322.928H872.289V320.288ZM856.497 326.408H858.369C862.137 326.408 865.065 326.288 868.329 325.712L868.641 328.28C865.281 328.88 862.233 329.024 858.369 329.024H856.497V326.408ZM856.473 313.784H866.697V322.4H859.665V327.392H856.497V319.856H863.529V316.328H856.473V313.784ZM884.354 313.712H896.21V316.28H884.354V313.712ZM884.114 325.328L883.778 322.76C887.546 322.736 892.706 322.688 896.978 322.136L897.194 324.464C892.826 325.232 887.786 325.328 884.114 325.328ZM886.105 315.68H889.178V323.24H886.105V315.68ZM891.41 315.68H894.458V323.24H891.41V315.68ZM898.202 311.936H901.394V328.304H898.202V311.936ZM900.482 318.176H904.346V320.816H900.482V318.176ZM887.066 331.208H902.186V333.752H887.066V331.208ZM887.066 326.768H890.258V331.88H887.066V326.768ZM920.28 311.912H923.472V327.968H920.28V311.912ZM922.56 317.96H926.424V320.576H922.56V317.96ZM906.816 321.776H908.664C913.488 321.776 915.888 321.68 918.552 321.104L918.864 323.624C916.152 324.224 913.608 324.344 908.664 324.344H906.816V321.776ZM906.816 313.664H916.752V316.232H909.984V323.144H906.816V313.664ZM909.144 331.208H924.264V333.752H909.144V331.208ZM909.144 326.288H912.336V332.504H909.144V326.288Z" fill="white"/>
<path d="M754.2 368.888H757.416V391.184H754.2V368.888ZM740.064 370.664H743.232V376.064H747.816V370.664H750.984V386H740.064V370.664ZM743.232 378.536V383.432H747.816V378.536H743.232ZM762.166 370.016H772.942V379.424H762.166V370.016ZM769.822 372.512H765.286V376.928H769.822V372.512ZM776.302 368.912H779.518V380.12H776.302V368.912ZM764.686 381.08H779.518V387.128H767.854V389.384H764.71V384.848H776.35V383.528H764.686V381.08ZM764.71 388.52H780.07V390.992H764.71V388.52ZM798.356 368.888H801.572V391.184H798.356V368.888ZM789.596 370.448C792.956 370.448 795.428 373.52 795.428 378.368C795.428 383.264 792.956 386.336 789.596 386.336C786.236 386.336 783.764 383.264 783.764 378.368C783.764 373.52 786.236 370.448 789.596 370.448ZM789.596 373.352C787.94 373.352 786.812 375.104 786.812 378.368C786.812 381.68 787.94 383.456 789.596 383.456C791.252 383.456 792.356 381.68 792.356 378.368C792.356 375.104 791.252 373.352 789.596 373.352ZM827.485 368.912H830.509V391.136H827.485V368.912ZM820.165 376.496H823.837V379.088H820.165V376.496ZM822.997 369.272H825.973V390.128H822.997V369.272ZM815.365 372.536H817.765V374.816C817.765 379.808 816.397 384.776 812.869 386.984L810.973 384.632C814.237 382.592 815.365 378.608 815.365 374.816V372.536ZM816.085 372.536H818.461V374.816C818.461 378.512 819.565 382.256 822.781 384.128L820.909 386.456C817.381 384.368 816.085 379.712 816.085 374.816V372.536ZM811.813 371.144H821.725V373.712H811.813V371.144ZM849.563 368.912H852.587V391.136H849.563V368.912ZM846.587 377.456H850.283V380.024H846.587V377.456ZM844.595 369.296H847.547V390.08H844.595V369.296ZM834.131 383.504H835.691C838.427 383.504 840.707 383.408 843.347 382.928L843.587 385.52C840.899 386.048 838.547 386.12 835.691 386.12H834.131V383.504ZM834.131 371.48H842.339V374.048H837.299V384.752H834.131V371.48ZM855.609 386.096H875.721V388.688H855.609V386.096ZM864.033 381.896H867.225V387.152H864.033V381.896ZM857.865 370.352H873.465V377.744H861.081V381.488H857.913V375.248H870.297V372.872H857.865V370.352ZM857.913 380.216H873.969V382.784H857.913V380.216ZM738.984 418.976H759.096V421.568H738.984V418.976ZM747.408 414.224H750.6V419.6H747.408V414.224ZM741.096 403.328H744.264V406.736H753.744V403.328H756.912V414.896H741.096V403.328ZM744.264 409.232V412.352H753.744V409.232H744.264ZM765.982 404.384H768.598V405.776C768.598 410.024 766.606 413.84 762.31 415.256L760.726 412.736C764.422 411.512 765.982 408.608 765.982 405.776V404.384ZM766.63 404.384H769.222V405.776C769.222 408.368 770.71 410.912 774.286 411.992L772.774 414.488C768.55 413.216 766.63 409.736 766.63 405.776V404.384ZM761.566 403.4H773.566V405.944H761.566V403.4ZM775.342 401.912H778.534V415.088H775.342V401.912ZM777.646 407.024H781.486V409.64H777.646V407.024ZM771.286 415.496C775.894 415.496 778.798 417.104 778.798 419.816C778.798 422.528 775.894 424.136 771.286 424.136C766.654 424.136 763.75 422.528 763.75 419.816C763.75 417.104 766.654 415.496 771.286 415.496ZM771.286 417.992C768.454 417.992 766.918 418.568 766.918 419.816C766.918 421.064 768.454 421.688 771.286 421.688C774.118 421.688 775.63 421.064 775.63 419.816C775.63 418.568 774.118 417.992 771.286 417.992ZM785.156 407.072H795.956V409.472H785.156V407.072ZM785.156 402.8H795.74V405.2H788.444V408.128H785.156V402.8ZM788.9 408.56H792.116V411.896H788.9V408.56ZM798.5 401.912H801.692V413.576H798.5V401.912ZM783.62 413.432L783.26 411.008C787.556 411.008 792.764 410.96 797.3 410.528L797.468 412.664C792.812 413.336 787.796 413.432 783.62 413.432ZM786.596 414.368H801.692V420.272H789.764V422.336H786.62V417.968H798.548V416.816H786.596V414.368ZM786.62 421.52H802.22V423.992H786.62V421.52ZM819.666 401.912H822.858V424.136H819.666V401.912ZM821.874 410.6H825.738V413.24H821.874V410.6ZM808.77 404.168H811.746C811.746 410.336 811.17 415.064 807.234 419.48L804.738 417.68C808.17 413.888 808.77 410.192 808.77 404.552V404.168ZM805.722 404.168H810.018V406.76H805.722V404.168ZM814.89 404.168H817.866C817.866 410.624 817.338 416.072 813.474 420.896L810.978 419.12C814.338 414.872 814.89 410.6 814.89 404.528V404.168ZM812.49 404.168H816.21V406.76H812.49V404.168ZM836.051 409.76H851.315V412.304H836.051V409.76ZM833.507 414.488H853.643V417.056H833.507V414.488ZM841.907 415.976H845.075V424.112H841.907V415.976ZM836.051 403.088H851.099V405.632H839.315V410.984H836.051V403.088ZM870.993 401.888H874.185V424.184H870.993V401.888ZM867.345 406.616H871.521V409.184H867.345V406.616ZM856.353 416.624H858.105C861.393 416.624 864.129 416.552 867.321 416.072L867.585 418.664C864.321 419.168 861.489 419.24 858.105 419.24H856.353V416.624ZM856.305 403.76H866.241V412.376H859.521V417.2H856.353V409.856H863.097V406.304H856.305V403.76ZM867.297 412.664H871.473V415.232H867.297V412.664ZM883.039 414.44H886.231V423.464H883.039V414.44ZM893.287 401.912H896.503V424.136H893.287V401.912ZM877.975 415.784L877.591 413.192C881.719 413.192 887.167 413.168 891.895 412.52L892.063 414.848C887.215 415.712 882.031 415.784 877.975 415.784ZM888.847 416.864H893.935V419.264H888.847V416.864ZM884.791 402.824C888.055 402.824 890.431 404.696 890.431 407.384C890.431 410.096 888.055 411.944 884.791 411.944C881.479 411.944 879.127 410.096 879.127 407.384C879.127 404.696 881.479 402.824 884.791 402.824ZM884.791 405.224C883.207 405.224 882.103 406.04 882.103 407.384C882.103 408.752 883.207 409.52 884.791 409.52C886.327 409.52 887.431 408.752 887.431 407.384C887.431 406.04 886.327 405.224 884.791 405.224ZM910.949 408.848H916.805V411.416H910.949V408.848ZM904.901 403.616H907.493V406.832C907.493 412.424 905.597 417.584 901.421 419.672L899.429 417.104C903.221 415.352 904.901 411.056 904.901 406.832V403.616ZM905.573 403.616H908.117V406.832C908.117 411.056 909.725 415.112 913.397 416.744L911.501 419.288C907.325 417.272 905.573 412.376 905.573 406.832V403.616ZM915.221 401.888H918.389V424.184H915.221V401.888Z" fill="white"/>
<path d="M303.216 269.184H306V270.792C306 275.616 302.568 279.888 296.808 281.016L295.44 278.376C300.456 277.512 303.216 273.984 303.216 270.792V269.184ZM303.864 269.184H306.624V270.792C306.624 274.056 309.36 277.512 314.4 278.376L313.032 281.016C307.272 279.888 303.864 275.688 303.864 270.792V269.184ZM294.984 284.832H315.096V287.424H294.984V284.832ZM325.294 269.184H328.078V270.792C328.078 275.616 324.646 279.888 318.886 281.016L317.518 278.376C322.534 277.512 325.294 273.984 325.294 270.792V269.184ZM325.942 269.184H328.702V270.792C328.702 274.056 331.438 277.512 336.478 278.376L335.11 281.016C329.35 279.888 325.942 275.688 325.942 270.792V269.184ZM317.062 284.832H337.174V287.424H317.062V284.832ZM339.14 285.096H359.252V287.688H339.14V285.096ZM347.564 280.896H350.756V286.152H347.564V280.896ZM341.396 269.352H356.996V276.744H344.612V280.488H341.444V274.248H353.828V271.872H341.396V269.352ZM341.444 279.216H357.5V281.784H341.444V279.216ZM367.429 278.88H387.541V281.424H367.429V278.88ZM376.141 280.488H379.357V285.168H376.141V280.488ZM369.901 268.848H384.997V277.104H369.901V268.848ZM381.853 271.344H373.021V274.608H381.853V271.344ZM369.757 287.208H385.333V289.752H369.757V287.208ZM369.757 283.296H372.925V288.048H369.757V283.296ZM405.563 267.912H408.587V290.136H405.563V267.912ZM398.243 275.496H401.915V278.088H398.243V275.496ZM401.075 268.272H404.051V289.128H401.075V268.272ZM393.443 271.536H395.843V273.816C395.843 278.808 394.475 283.776 390.947 285.984L389.051 283.632C392.315 281.592 393.443 277.608 393.443 273.816V271.536ZM394.163 271.536H396.539V273.816C396.539 277.512 397.643 281.256 400.859 283.128L398.987 285.456C395.459 283.368 394.163 278.712 394.163 273.816V271.536ZM389.891 270.144H399.803V272.712H389.891V270.144ZM411.585 277.872H431.721V280.2H411.585V277.872ZM413.841 281.304H429.321V286.584H417.057V288.48H413.889V284.568H426.177V283.464H413.841V281.304ZM413.889 287.808H429.945V289.968H413.889V287.808ZM414.057 268.296H429.273V273.528H417.249V275.352H414.081V271.536H426.129V270.432H414.057V268.296ZM414.081 274.68H429.681V276.84H414.081V274.68ZM294.936 304.248H305.568V306.792H294.936V304.248ZM300.288 307.776C303.12 307.776 305.16 309.96 305.16 313.08C305.16 316.176 303.12 318.36 300.288 318.36C297.48 318.36 295.416 316.176 295.416 313.08C295.416 309.96 297.48 307.776 300.288 307.776ZM300.288 310.44C299.088 310.44 298.248 311.4 298.248 313.08C298.248 314.76 299.088 315.696 300.288 315.696C301.488 315.696 302.352 314.76 302.352 313.08C302.352 311.4 301.488 310.44 300.288 310.44ZM311.016 300.912H314.064V323.136H311.016V300.912ZM308.352 309.936H312.024V312.504H308.352V309.936ZM306.36 301.32H309.336V322.2H306.36V301.32ZM298.728 301.512H301.872V305.856H298.728V301.512ZM332.446 300.912H335.638V312.072H332.446V300.912ZM325.03 301.752H328.51C328.51 307.656 325.102 311.112 318.358 312.576L317.302 310.008C322.87 308.904 325.03 306.456 325.03 303.48V301.752ZM318.574 301.752H326.374V304.296H318.574V301.752ZM327.646 303.672H332.854V306.096H327.646V303.672ZM327.502 307.992H332.734V310.392H327.502V307.992ZM320.95 312.888H335.638V319.008H324.19V321.768H320.998V316.656H332.446V315.384H320.95V312.888ZM320.998 320.424H336.094V322.92H320.998V320.424ZM353.372 300.912H356.54V323.136H353.372V300.912ZM355.82 309.576H359.756V312.24H355.82V309.576ZM339.02 304.2H351.956V306.744H339.02V304.2ZM345.524 307.992C348.764 307.992 351.164 310.2 351.164 313.296C351.164 316.392 348.764 318.6 345.524 318.6C342.284 318.6 339.884 316.392 339.884 313.296C339.884 310.2 342.284 307.992 345.524 307.992ZM345.524 310.584C344.012 310.584 342.932 311.592 342.932 313.296C342.932 315 344.012 316.008 345.524 316.008C347.036 316.008 348.116 315 348.116 313.296C348.116 311.592 347.036 310.584 345.524 310.584ZM343.916 301.272H347.108V305.16H343.916V301.272ZM376.506 300.912H379.722V323.136H376.506V300.912ZM369.954 303.216H373.122C373.122 310.008 370.818 315.576 362.922 319.392L361.266 316.848C367.65 313.776 369.954 309.744 369.954 303.792V303.216ZM362.442 303.216H371.466V305.736H362.442V303.216ZM396.707 301.8C400.091 301.8 402.539 303.744 402.539 306.552C402.539 309.312 400.091 311.304 396.707 311.304C393.347 311.304 390.899 309.312 390.899 306.552C390.899 303.744 393.347 301.8 396.707 301.8ZM396.707 304.392C395.099 304.392 393.947 305.16 393.947 306.552C393.947 307.92 395.099 308.688 396.707 308.688C398.339 308.688 399.491 307.92 399.491 306.552C399.491 305.16 398.339 304.392 396.707 304.392ZM395.219 313.512H398.411V322.464H395.219V313.512ZM404.939 300.912H408.107V323.136H404.939V300.912ZM389.963 315.192L389.579 312.6C393.467 312.6 398.963 312.552 403.667 311.832L403.883 314.16C399.059 315.12 393.803 315.168 389.963 315.192ZM411.561 304.248H422.193V306.792H411.561V304.248ZM416.913 307.776C419.745 307.776 421.785 309.96 421.785 313.08C421.785 316.176 419.745 318.36 416.913 318.36C414.105 318.36 412.041 316.176 412.041 313.08C412.041 309.96 414.105 307.776 416.913 307.776ZM416.913 310.44C415.713 310.44 414.873 311.4 414.873 313.08C414.873 314.76 415.713 315.696 416.913 315.696C418.113 315.696 418.977 314.76 418.977 313.08C418.977 311.4 418.113 310.44 416.913 310.44ZM427.641 300.912H430.689V323.136H427.641V300.912ZM424.977 309.936H428.649V312.504H424.977V309.936ZM422.985 301.32H425.961V322.2H422.985V301.32ZM415.353 301.512H418.497V305.856H415.353V301.512Z" fill="white"/>
<path d="M309.168 357.888H312.384V380.184H309.168V357.888ZM311.664 366.12H315.6V368.736H311.664V366.12ZM295.824 372.192H297.696C301.44 372.192 304.392 372.072 307.656 371.496L307.968 374.136C304.608 374.736 301.56 374.832 297.696 374.832H295.824V372.192ZM295.824 359.952H306.192V362.52H298.992V373.464H295.824V359.952ZM317.038 369.912H337.174V372.456H317.038V369.912ZM319.558 377.208H335.23V379.752H319.558V377.208ZM319.558 373.68H322.75V378.312H319.558V373.68ZM319.51 358.416H334.726V364.584H322.702V366.888H319.534V362.328H331.582V360.84H319.51V358.416ZM319.534 366.144H335.158V368.544H319.534V366.144ZM350.343 359.616H352.935V362.856C352.935 368.352 351.015 373.512 346.815 375.576L344.895 373.008C348.639 371.256 350.343 366.984 350.343 362.856V359.616ZM350.991 359.616H353.535V362.856C353.535 366.84 355.119 370.896 358.671 372.624L356.751 375.168C352.743 373.128 350.991 368.184 350.991 362.856V359.616ZM359.559 357.912H362.775V380.136H359.559V357.912ZM362.055 366.456H365.991V369.12H362.055V366.456ZM381.733 357.936H384.925V371.112H381.733V357.936ZM384.013 363.144H387.877V365.784H384.013V363.144ZM370.453 372.072H384.925V379.896H370.453V372.072ZM381.805 374.568H373.597V377.376H381.805V374.568ZM368.221 367.752H370.093C374.461 367.752 377.149 367.68 380.221 367.104L380.509 369.624C377.389 370.224 374.581 370.344 370.093 370.344H368.221V367.752ZM368.197 359.016H378.349V365.784H371.389V369.168H368.221V363.408H375.205V361.56H368.197V359.016ZM396.659 359.376C400.163 359.376 402.779 361.656 402.779 364.848C402.779 368.064 400.163 370.344 396.659 370.344C393.179 370.344 390.515 368.064 390.515 364.848C390.515 361.656 393.179 359.376 396.659 359.376ZM396.659 362.112C394.955 362.112 393.659 363.12 393.659 364.848C393.659 366.6 394.955 367.608 396.659 367.608C398.363 367.608 399.659 366.6 399.659 364.848C399.659 363.12 398.363 362.112 396.659 362.112ZM404.867 357.888H408.059V380.184H404.867V357.888ZM389.987 375.672L389.603 373.104C393.515 373.104 398.963 373.056 403.643 372.36L403.883 374.664C399.059 375.624 393.827 375.672 389.987 375.672ZM300.384 392.616H302.976V395.856C302.976 401.568 301.008 406.728 296.592 408.768L294.696 406.128C298.56 404.448 300.384 400.176 300.384 395.856V392.616ZM301.008 392.616H303.6V395.856C303.6 399.96 305.352 404.04 309.144 405.672L307.272 408.24C302.976 406.272 301.008 401.328 301.008 395.856V392.616ZM310.2 390.888H313.416V413.184H310.2V390.888ZM328.39 395.64H333.55V398.208H328.39V395.64ZM322.126 392.28H324.694V394.68C324.694 399.216 322.798 403.08 318.598 404.616L316.918 402.12C320.59 400.896 322.126 397.824 322.126 394.68V392.28ZM322.822 392.28H325.366V394.704C325.366 397.56 326.83 400.416 330.334 401.616L328.63 404.064C324.646 402.624 322.822 398.904 322.822 394.704V392.28ZM332.446 390.936H335.638V407.328H332.446V390.936ZM320.926 410.208H336.118V412.752H320.926V410.208ZM320.926 405.672H324.142V411.624H320.926V405.672ZM346.268 392.376C349.772 392.376 352.388 394.656 352.388 397.848C352.388 401.064 349.772 403.344 346.268 403.344C342.788 403.344 340.124 401.064 340.124 397.848C340.124 394.656 342.788 392.376 346.268 392.376ZM346.268 395.112C344.564 395.112 343.268 396.12 343.268 397.848C343.268 399.6 344.564 400.608 346.268 400.608C347.972 400.608 349.268 399.6 349.268 397.848C349.268 396.12 347.972 395.112 346.268 395.112ZM354.476 390.888H357.668V413.184H354.476V390.888ZM339.596 408.672L339.212 406.104C343.124 406.104 348.572 406.056 353.252 405.36L353.492 407.664C348.668 408.624 343.436 408.672 339.596 408.672ZM366.402 391.92H369.042V394.056C369.042 398.256 367.002 402.072 362.658 403.464L361.098 400.944C364.842 399.744 366.402 396.864 366.402 394.056V391.92ZM367.05 391.92H369.666V394.056C369.666 396.792 371.202 399.48 374.826 400.584L373.266 403.08C369.018 401.736 367.05 398.184 367.05 394.056V391.92ZM364.506 405.144H379.674V413.136H376.458V407.688H364.506V405.144ZM376.458 390.912H379.674V404.16H376.458V390.912Z" fill="white"/>
<path d="M112.52 308.528H107.016V318H97.608V308.528H78.088V301.808L98.12 272.304H107.016V301.04H112.52V308.528ZM97.608 293.296C97.608 292.57 97.608 291.717 97.608 290.736C97.6507 289.712 97.6934 288.709 97.736 287.728C97.7787 286.704 97.8214 285.808 97.864 285.04C97.9067 284.229 97.9494 283.674 97.992 283.376H97.736C97.352 284.229 96.9467 285.061 96.52 285.872C96.0934 286.682 95.5814 287.514 94.984 288.368L86.6 301.04H97.608V293.296ZM120.729 318L137.881 280.432H115.353V272.304H148.121V278.384L130.841 318H120.729ZM153.898 313.52C153.898 311.557 154.431 310.192 155.498 309.424C156.565 308.613 157.866 308.208 159.402 308.208C160.895 308.208 162.175 308.613 163.242 309.424C164.309 310.192 164.842 311.557 164.842 313.52C164.842 315.397 164.309 316.762 163.242 317.616C162.175 318.426 160.895 318.832 159.402 318.832C157.866 318.832 156.565 318.426 155.498 317.616C154.431 316.762 153.898 315.397 153.898 313.52ZM170.74 298.608C170.74 295.962 170.932 293.36 171.316 290.8C171.7 288.24 172.361 285.829 173.3 283.568C174.281 281.264 175.625 279.237 177.332 277.488C179.081 275.696 181.279 274.309 183.924 273.328C186.612 272.304 189.855 271.792 193.652 271.792C194.548 271.792 195.593 271.834 196.788 271.92C197.983 271.962 198.985 272.069 199.796 272.24V279.984C198.985 279.77 198.089 279.621 197.108 279.536C196.169 279.408 195.231 279.344 194.292 279.344C191.433 279.344 189.065 279.685 187.188 280.368C185.353 281.05 183.903 282.032 182.836 283.312C181.769 284.592 180.98 286.106 180.468 287.856C179.999 289.562 179.721 291.482 179.636 293.616H180.02C180.617 292.592 181.343 291.696 182.196 290.928C183.092 290.117 184.18 289.477 185.46 289.008C186.74 288.538 188.233 288.304 189.94 288.304C192.628 288.304 194.932 288.88 196.852 290.032C198.815 291.141 200.329 292.784 201.396 294.96C202.463 297.093 202.996 299.696 202.996 302.768C202.996 306.053 202.356 308.89 201.076 311.28C199.839 313.669 198.047 315.504 195.7 316.784C193.396 318.021 190.644 318.64 187.444 318.64C185.097 318.64 182.9 318.234 180.852 317.424C178.847 316.613 177.076 315.397 175.54 313.776C174.047 312.112 172.873 310.021 172.02 307.504C171.167 304.986 170.74 302.021 170.74 298.608ZM187.252 310.896C189.129 310.896 190.665 310.256 191.86 308.976C193.055 307.653 193.652 305.626 193.652 302.896C193.652 300.677 193.14 298.928 192.116 297.648C191.092 296.368 189.535 295.728 187.444 295.728C186.036 295.728 184.799 296.048 183.732 296.688C182.665 297.285 181.833 298.074 181.236 299.056C180.639 300.037 180.34 301.04 180.34 302.064C180.34 303.13 180.489 304.197 180.788 305.264C181.087 306.288 181.513 307.226 182.068 308.08C182.665 308.933 183.391 309.616 184.244 310.128C185.097 310.64 186.1 310.896 187.252 310.896ZM217.861 271.664C221.445 271.664 224.154 272.922 225.989 275.44C227.866 277.914 228.805 281.413 228.805 285.936C228.805 290.458 227.93 294 226.181 296.56C224.432 299.077 221.658 300.336 217.861 300.336C215.514 300.336 213.53 299.76 211.909 298.608C210.33 297.456 209.136 295.813 208.325 293.68C207.514 291.504 207.109 288.922 207.109 285.936C207.109 281.413 207.962 277.914 209.669 275.44C211.376 272.922 214.106 271.664 217.861 271.664ZM217.925 278.192C216.901 278.192 216.154 278.832 215.685 280.112C215.216 281.392 214.981 283.354 214.981 286C214.981 288.602 215.216 290.565 215.685 291.888C216.154 293.21 216.901 293.872 217.925 293.872C218.949 293.872 219.696 293.21 220.165 291.888C220.677 290.565 220.933 288.602 220.933 286C220.933 283.354 220.677 281.392 220.165 280.112C219.696 278.832 218.949 278.192 217.925 278.192ZM250.309 272.304L224.965 318H217.477L242.821 272.304H250.309ZM249.861 289.904C252.25 289.904 254.256 290.48 255.877 291.632C257.498 292.741 258.714 294.362 259.525 296.496C260.378 298.586 260.805 301.146 260.805 304.176C260.805 308.698 259.93 312.24 258.181 314.8C256.432 317.317 253.658 318.576 249.861 318.576C247.514 318.576 245.53 318 243.909 316.848C242.33 315.696 241.136 314.053 240.325 311.92C239.514 309.744 239.109 307.162 239.109 304.176C239.109 299.653 239.962 296.154 241.669 293.68C243.376 291.162 246.106 289.904 249.861 289.904ZM249.925 296.432C248.901 296.432 248.154 297.072 247.685 298.352C247.216 299.632 246.981 301.594 246.981 304.24C246.981 306.842 247.216 308.805 247.685 310.128C248.154 311.45 248.901 312.112 249.925 312.112C250.949 312.112 251.696 311.472 252.165 310.192C252.677 308.869 252.933 306.885 252.933 304.24C252.933 301.594 252.677 299.632 252.165 298.352C251.696 297.072 250.949 296.432 249.925 296.432Z" fill="#FF3636"/>
<path d="M112.52 397.528H107.016V407H97.608V397.528H78.088V390.808L98.12 361.304H107.016V390.04H112.52V397.528ZM97.608 382.296C97.608 381.57 97.608 380.717 97.608 379.736C97.6507 378.712 97.6933 377.709 97.736 376.728C97.7787 375.704 97.8213 374.808 97.864 374.04C97.9067 373.229 97.9493 372.674 97.992 372.376H97.736C97.352 373.229 96.9467 374.061 96.52 374.872C96.0933 375.682 95.5813 376.514 94.984 377.368L86.6 390.04H97.608V382.296ZM148.121 407H116.185V400.28L127.641 388.696C129.945 386.306 131.801 384.322 133.209 382.744C134.617 381.122 135.641 379.672 136.281 378.392C136.921 377.069 137.241 375.661 137.241 374.168C137.241 372.333 136.729 370.968 135.705 370.072C134.724 369.176 133.38 368.728 131.673 368.728C129.924 368.728 128.217 369.133 126.553 369.944C124.889 370.754 123.14 371.906 121.305 373.4L116.057 367.192C117.38 366.04 118.766 364.973 120.217 363.992C121.71 363.01 123.417 362.221 125.337 361.624C127.3 360.984 129.646 360.664 132.377 360.664C135.364 360.664 137.924 361.218 140.057 362.328C142.233 363.394 143.897 364.866 145.049 366.744C146.244 368.578 146.841 370.669 146.841 373.016C146.841 374.936 146.542 376.706 145.945 378.328C145.39 379.949 144.558 381.528 143.449 383.064C142.382 384.557 141.06 386.114 139.481 387.736C137.902 389.314 136.11 391.042 134.105 392.92L128.217 398.424V398.872H148.121V407ZM153.898 402.52C153.898 400.557 154.431 399.192 155.498 398.424C156.565 397.613 157.866 397.208 159.402 397.208C160.895 397.208 162.175 397.613 163.242 398.424C164.309 399.192 164.842 400.557 164.842 402.52C164.842 404.397 164.309 405.762 163.242 406.616C162.175 407.426 160.895 407.832 159.402 407.832C157.866 407.832 156.565 407.426 155.498 406.616C154.431 405.762 153.898 404.397 153.898 402.52ZM186.804 360.728C189.449 360.728 191.86 361.133 194.036 361.944C196.255 362.754 198.025 363.97 199.348 365.592C200.713 367.213 201.396 369.261 201.396 371.736C201.396 373.57 201.033 375.192 200.308 376.6C199.583 377.965 198.601 379.16 197.364 380.184C196.169 381.208 194.783 382.104 193.204 382.872C194.825 383.725 196.361 384.728 197.812 385.88C199.305 386.989 200.5 388.312 201.396 389.848C202.335 391.341 202.804 393.112 202.804 395.16C202.804 397.677 202.121 399.874 200.756 401.752C199.433 403.629 197.556 405.08 195.124 406.104C192.735 407.128 189.961 407.64 186.804 407.64C183.391 407.64 180.489 407.149 178.1 406.168C175.711 405.186 173.876 403.778 172.596 401.944C171.359 400.109 170.74 397.933 170.74 395.416C170.74 393.325 171.124 391.512 171.892 389.976C172.703 388.44 173.769 387.117 175.092 386.008C176.415 384.856 177.887 383.896 179.508 383.128C178.143 382.274 176.905 381.314 175.796 380.248C174.687 379.138 173.791 377.901 173.108 376.536C172.468 375.128 172.148 373.506 172.148 371.672C172.148 369.24 172.831 367.213 174.196 365.592C175.561 363.97 177.353 362.754 179.572 361.944C181.833 361.133 184.244 360.728 186.804 360.728ZM179.7 394.84C179.7 396.504 180.276 397.869 181.428 398.936C182.623 400.002 184.372 400.536 186.676 400.536C188.297 400.536 189.62 400.301 190.644 399.832C191.711 399.362 192.5 398.701 193.012 397.848C193.567 396.994 193.844 396.013 193.844 394.904C193.844 393.752 193.503 392.749 192.82 391.896C192.137 391 191.284 390.21 190.26 389.528C189.279 388.802 188.255 388.141 187.188 387.544L186.356 387.096C185.033 387.693 183.86 388.376 182.836 389.144C181.855 389.912 181.087 390.765 180.532 391.704C179.977 392.6 179.7 393.645 179.7 394.84ZM186.74 367.768C185.161 367.768 183.839 368.173 182.772 368.984C181.748 369.794 181.236 370.946 181.236 372.44C181.236 373.464 181.492 374.381 182.004 375.192C182.516 375.96 183.199 376.642 184.052 377.24C184.905 377.794 185.823 378.328 186.804 378.84C187.785 378.37 188.681 377.858 189.492 377.304C190.345 376.749 191.028 376.088 191.54 375.32C192.052 374.509 192.308 373.549 192.308 372.44C192.308 370.946 191.775 369.794 190.708 368.984C189.684 368.173 188.361 367.768 186.74 367.768ZM217.861 360.664C221.445 360.664 224.154 361.922 225.989 364.44C227.866 366.914 228.805 370.413 228.805 374.936C228.805 379.458 227.93 383 226.181 385.56C224.432 388.077 221.658 389.336 217.861 389.336C215.514 389.336 213.53 388.76 211.909 387.608C210.33 386.456 209.136 384.813 208.325 382.68C207.514 380.504 207.109 377.922 207.109 374.936C207.109 370.413 207.962 366.914 209.669 364.44C211.376 361.922 214.106 360.664 217.861 360.664ZM217.925 367.192C216.901 367.192 216.154 367.832 215.685 369.112C215.216 370.392 214.981 372.354 214.981 375C214.981 377.602 215.216 379.565 215.685 380.888C216.154 382.21 216.901 382.872 217.925 382.872C218.949 382.872 219.696 382.21 220.165 380.888C220.677 379.565 220.933 377.602 220.933 375C220.933 372.354 220.677 370.392 220.165 369.112C219.696 367.832 218.949 367.192 217.925 367.192ZM250.309 361.304L224.965 407H217.477L242.821 361.304H250.309ZM249.861 378.904C252.25 378.904 254.256 379.48 255.877 380.632C257.498 381.741 258.714 383.362 259.525 385.496C260.378 387.586 260.805 390.146 260.805 393.176C260.805 397.698 259.93 401.24 258.181 403.8C256.432 406.317 253.658 407.576 249.861 407.576C247.514 407.576 245.53 407 243.909 405.848C242.33 404.696 241.136 403.053 240.325 400.92C239.514 398.744 239.109 396.162 239.109 393.176C239.109 388.653 239.962 385.154 241.669 382.68C243.376 380.162 246.106 378.904 249.861 378.904ZM249.925 385.432C248.901 385.432 248.154 386.072 247.685 387.352C247.216 388.632 246.981 390.594 246.981 393.24C246.981 395.842 247.216 397.805 247.685 399.128C248.154 400.45 248.901 401.112 249.925 401.112C250.949 401.112 251.696 400.472 252.165 399.192C252.677 397.869 252.933 395.885 252.933 393.24C252.933 390.594 252.677 388.632 252.165 387.352C251.696 386.072 250.949 385.432 249.925 385.432Z" fill="#BD7676"/>
<path d="M538.2 203.816C540.973 203.816 543.448 204.349 545.624 205.416C547.8 206.483 549.507 208.04 550.744 210.088C552.024 212.136 552.664 214.675 552.664 217.704C552.664 220.989 551.981 223.827 550.616 226.216C549.251 228.605 547.203 230.44 544.472 231.72C541.784 233 538.435 233.64 534.424 233.64C532.035 233.64 529.773 233.427 527.64 233C525.549 232.573 523.715 231.955 522.136 231.144V222.824C523.715 223.635 525.613 224.339 527.832 224.936C530.051 225.491 532.141 225.768 534.104 225.768C536.024 225.768 537.624 225.512 538.904 225C540.227 224.488 541.229 223.699 541.912 222.632C542.595 221.565 542.936 220.2 542.936 218.536C542.936 216.275 542.189 214.568 540.696 213.416C539.203 212.221 536.899 211.624 533.784 211.624C532.589 211.624 531.352 211.752 530.072 212.008C528.792 212.221 527.725 212.435 526.872 212.648L523.032 210.6L524.76 187.304H549.528V195.496H533.208L532.376 204.456C533.101 204.328 533.869 204.2 534.68 204.072C535.533 203.901 536.707 203.816 538.2 203.816ZM590.121 233H558.185V226.28L569.641 214.696C571.945 212.307 573.801 210.323 575.209 208.744C576.617 207.123 577.641 205.672 578.281 204.392C578.921 203.069 579.241 201.661 579.241 200.168C579.241 198.333 578.729 196.968 577.705 196.072C576.724 195.176 575.38 194.728 573.673 194.728C571.924 194.728 570.217 195.133 568.553 195.944C566.889 196.755 565.14 197.907 563.305 199.4L558.057 193.192C559.38 192.04 560.766 190.973 562.217 189.992C563.71 189.011 565.417 188.221 567.337 187.624C569.3 186.984 571.646 186.664 574.377 186.664C577.364 186.664 579.924 187.219 582.057 188.328C584.233 189.395 585.897 190.867 587.049 192.744C588.244 194.579 588.841 196.669 588.841 199.016C588.841 200.936 588.542 202.707 587.945 204.328C587.39 205.949 586.558 207.528 585.449 209.064C584.382 210.557 583.06 212.115 581.481 213.736C579.902 215.315 578.11 217.043 576.105 218.92L570.217 224.424V224.872H590.121V233ZM595.898 228.52C595.898 226.557 596.431 225.192 597.498 224.424C598.565 223.613 599.866 223.208 601.402 223.208C602.895 223.208 604.175 223.613 605.242 224.424C606.309 225.192 606.842 226.557 606.842 228.52C606.842 230.397 606.309 231.763 605.242 232.616C604.175 233.427 602.895 233.832 601.402 233.832C599.866 233.832 598.565 233.427 597.498 232.616C596.431 231.763 595.898 230.397 595.898 228.52ZM628.804 186.728C631.449 186.728 633.86 187.133 636.036 187.944C638.255 188.755 640.025 189.971 641.348 191.592C642.713 193.213 643.396 195.261 643.396 197.736C643.396 199.571 643.033 201.192 642.308 202.6C641.583 203.965 640.601 205.16 639.364 206.184C638.169 207.208 636.783 208.104 635.204 208.872C636.825 209.725 638.361 210.728 639.812 211.88C641.305 212.989 642.5 214.312 643.396 215.848C644.335 217.341 644.804 219.112 644.804 221.16C644.804 223.677 644.121 225.875 642.756 227.752C641.433 229.629 639.556 231.08 637.124 232.104C634.735 233.128 631.961 233.64 628.804 233.64C625.391 233.64 622.489 233.149 620.1 232.168C617.711 231.187 615.876 229.779 614.596 227.944C613.359 226.109 612.74 223.933 612.74 221.416C612.74 219.325 613.124 217.512 613.892 215.976C614.703 214.44 615.769 213.117 617.092 212.008C618.415 210.856 619.887 209.896 621.508 209.128C620.143 208.275 618.905 207.315 617.796 206.248C616.687 205.139 615.791 203.901 615.108 202.536C614.468 201.128 614.148 199.507 614.148 197.672C614.148 195.24 614.831 193.213 616.196 191.592C617.561 189.971 619.353 188.755 621.572 187.944C623.833 187.133 626.244 186.728 628.804 186.728ZM621.7 220.84C621.7 222.504 622.276 223.869 623.428 224.936C624.623 226.003 626.372 226.536 628.676 226.536C630.297 226.536 631.62 226.301 632.644 225.832C633.711 225.363 634.5 224.701 635.012 223.848C635.567 222.995 635.844 222.013 635.844 220.904C635.844 219.752 635.503 218.749 634.82 217.896C634.137 217 633.284 216.211 632.26 215.528C631.279 214.803 630.255 214.141 629.188 213.544L628.356 213.096C627.033 213.693 625.86 214.376 624.836 215.144C623.855 215.912 623.087 216.765 622.532 217.704C621.977 218.6 621.7 219.645 621.7 220.84ZM628.74 193.768C627.161 193.768 625.839 194.173 624.772 194.984C623.748 195.795 623.236 196.947 623.236 198.44C623.236 199.464 623.492 200.381 624.004 201.192C624.516 201.96 625.199 202.643 626.052 203.24C626.905 203.795 627.823 204.328 628.804 204.84C629.785 204.371 630.681 203.859 631.492 203.304C632.345 202.749 633.028 202.088 633.54 201.32C634.052 200.509 634.308 199.549 634.308 198.44C634.308 196.947 633.775 195.795 632.708 194.984C631.684 194.173 630.361 193.768 628.74 193.768ZM659.861 186.664C663.445 186.664 666.154 187.923 667.989 190.44C669.866 192.915 670.805 196.413 670.805 200.936C670.805 205.459 669.93 209 668.181 211.56C666.432 214.077 663.658 215.336 659.861 215.336C657.514 215.336 655.53 214.76 653.909 213.608C652.33 212.456 651.136 210.813 650.325 208.68C649.514 206.504 649.109 203.923 649.109 200.936C649.109 196.413 649.962 192.915 651.669 190.44C653.376 187.923 656.106 186.664 659.861 186.664ZM659.925 193.192C658.901 193.192 658.154 193.832 657.685 195.112C657.216 196.392 656.981 198.355 656.981 201C656.981 203.603 657.216 205.565 657.685 206.888C658.154 208.211 658.901 208.872 659.925 208.872C660.949 208.872 661.696 208.211 662.165 206.888C662.677 205.565 662.933 203.603 662.933 201C662.933 198.355 662.677 196.392 662.165 195.112C661.696 193.832 660.949 193.192 659.925 193.192ZM692.309 187.304L666.965 233H659.477L684.821 187.304H692.309ZM691.861 204.904C694.25 204.904 696.256 205.48 697.877 206.632C699.498 207.741 700.714 209.363 701.525 211.496C702.378 213.587 702.805 216.147 702.805 219.176C702.805 223.699 701.93 227.24 700.181 229.8C698.432 232.317 695.658 233.576 691.861 233.576C689.514 233.576 687.53 233 685.909 231.848C684.33 230.696 683.136 229.053 682.325 226.92C681.514 224.744 681.109 222.163 681.109 219.176C681.109 214.653 681.962 211.155 683.669 208.68C685.376 206.163 688.106 204.904 691.861 204.904ZM691.925 211.432C690.901 211.432 690.154 212.072 689.685 213.352C689.216 214.632 688.981 216.595 688.981 219.24C688.981 221.843 689.216 223.805 689.685 225.128C690.154 226.451 690.901 227.112 691.925 227.112C692.949 227.112 693.696 226.472 694.165 225.192C694.677 223.869 694.933 221.885 694.933 219.24C694.933 216.595 694.677 214.632 694.165 213.352C693.696 212.072 692.949 211.432 691.925 211.432Z" fill="#FF3636"/>
<path d="M521.24 307.608C521.24 304.962 521.432 302.36 521.816 299.8C522.2 297.24 522.861 294.829 523.8 292.568C524.781 290.264 526.125 288.237 527.832 286.488C529.581 284.696 531.779 283.309 534.424 282.328C537.112 281.304 540.355 280.792 544.152 280.792C545.048 280.792 546.093 280.834 547.288 280.92C548.483 280.962 549.485 281.069 550.296 281.24V288.984C549.485 288.77 548.589 288.621 547.608 288.536C546.669 288.408 545.731 288.344 544.792 288.344C541.933 288.344 539.565 288.685 537.688 289.368C535.853 290.05 534.403 291.032 533.336 292.312C532.269 293.592 531.48 295.106 530.968 296.856C530.499 298.562 530.221 300.482 530.136 302.616H530.52C531.117 301.592 531.843 300.696 532.696 299.928C533.592 299.117 534.68 298.477 535.96 298.008C537.24 297.538 538.733 297.304 540.44 297.304C543.128 297.304 545.432 297.88 547.352 299.032C549.315 300.141 550.829 301.784 551.896 303.96C552.963 306.093 553.496 308.696 553.496 311.768C553.496 315.053 552.856 317.89 551.576 320.28C550.339 322.669 548.547 324.504 546.2 325.784C543.896 327.021 541.144 327.64 537.944 327.64C535.597 327.64 533.4 327.234 531.352 326.424C529.347 325.613 527.576 324.397 526.04 322.776C524.547 321.112 523.373 319.021 522.52 316.504C521.667 313.986 521.24 311.021 521.24 307.608ZM537.752 319.896C539.629 319.896 541.165 319.256 542.36 317.976C543.555 316.653 544.152 314.626 544.152 311.896C544.152 309.677 543.64 307.928 542.616 306.648C541.592 305.368 540.035 304.728 537.944 304.728C536.536 304.728 535.299 305.048 534.232 305.688C533.165 306.285 532.333 307.074 531.736 308.056C531.139 309.037 530.84 310.04 530.84 311.064C530.84 312.13 530.989 313.197 531.288 314.264C531.587 315.288 532.013 316.226 532.568 317.08C533.165 317.933 533.891 318.616 534.744 319.128C535.597 319.64 536.6 319.896 537.752 319.896ZM589.865 304.152C589.865 307.821 589.566 311.106 588.969 314.008C588.414 316.909 587.497 319.384 586.217 321.432C584.98 323.437 583.337 324.973 581.289 326.04C579.284 327.106 576.809 327.64 573.865 327.64C570.196 327.64 567.188 326.701 564.841 324.824C562.494 322.946 560.745 320.258 559.593 316.76C558.484 313.261 557.929 309.058 557.929 304.152C557.929 299.202 558.441 294.978 559.465 291.48C560.489 287.981 562.174 285.293 564.521 283.416C566.868 281.538 569.982 280.6 573.865 280.6C577.534 280.6 580.542 281.538 582.889 283.416C585.236 285.25 586.985 287.938 588.137 291.48C589.289 294.978 589.865 299.202 589.865 304.152ZM567.529 304.152C567.529 307.608 567.721 310.509 568.105 312.856C568.489 315.16 569.129 316.909 570.025 318.104C570.964 319.256 572.244 319.832 573.865 319.832C575.486 319.832 576.745 319.256 577.641 318.104C578.58 316.952 579.241 315.224 579.625 312.92C580.052 310.573 580.265 307.65 580.265 304.152C580.265 300.653 580.052 297.752 579.625 295.448C579.241 293.101 578.58 291.352 577.641 290.2C576.745 289.005 575.486 288.408 573.865 288.408C572.244 288.408 570.964 289.005 570.025 290.2C569.129 291.352 568.489 293.101 568.105 295.448C567.721 297.752 567.529 300.653 567.529 304.152ZM595.898 322.52C595.898 320.557 596.431 319.192 597.498 318.424C598.565 317.613 599.866 317.208 601.402 317.208C602.895 317.208 604.175 317.613 605.242 318.424C606.309 319.192 606.842 320.557 606.842 322.52C606.842 324.397 606.309 325.762 605.242 326.616C604.175 327.426 602.895 327.832 601.402 327.832C599.866 327.832 598.565 327.426 597.498 326.616C596.431 325.762 595.898 324.397 595.898 322.52ZM644.74 304.152C644.74 307.821 644.441 311.106 643.844 314.008C643.289 316.909 642.372 319.384 641.092 321.432C639.855 323.437 638.212 324.973 636.164 326.04C634.159 327.106 631.684 327.64 628.74 327.64C625.071 327.64 622.063 326.701 619.716 324.824C617.369 322.946 615.62 320.258 614.468 316.76C613.359 313.261 612.804 309.058 612.804 304.152C612.804 299.202 613.316 294.978 614.34 291.48C615.364 287.981 617.049 285.293 619.396 283.416C621.743 281.538 624.857 280.6 628.74 280.6C632.409 280.6 635.417 281.538 637.764 283.416C640.111 285.25 641.86 287.938 643.012 291.48C644.164 294.978 644.74 299.202 644.74 304.152ZM622.404 304.152C622.404 307.608 622.596 310.509 622.98 312.856C623.364 315.16 624.004 316.909 624.9 318.104C625.839 319.256 627.119 319.832 628.74 319.832C630.361 319.832 631.62 319.256 632.516 318.104C633.455 316.952 634.116 315.224 634.5 312.92C634.927 310.573 635.14 307.65 635.14 304.152C635.14 300.653 634.927 297.752 634.5 295.448C634.116 293.101 633.455 291.352 632.516 290.2C631.62 289.005 630.361 288.408 628.74 288.408C627.119 288.408 625.839 289.005 624.9 290.2C624.004 291.352 623.364 293.101 622.98 295.448C622.596 297.752 622.404 300.653 622.404 304.152ZM659.861 280.664C663.445 280.664 666.154 281.922 667.989 284.44C669.866 286.914 670.805 290.413 670.805 294.936C670.805 299.458 669.93 303 668.181 305.56C666.432 308.077 663.658 309.336 659.861 309.336C657.514 309.336 655.53 308.76 653.909 307.608C652.33 306.456 651.136 304.813 650.325 302.68C649.514 300.504 649.109 297.922 649.109 294.936C649.109 290.413 649.962 286.914 651.669 284.44C653.376 281.922 656.106 280.664 659.861 280.664ZM659.925 287.192C658.901 287.192 658.154 287.832 657.685 289.112C657.216 290.392 656.981 292.354 656.981 295C656.981 297.602 657.216 299.565 657.685 300.888C658.154 302.21 658.901 302.872 659.925 302.872C660.949 302.872 661.696 302.21 662.165 300.888C662.677 299.565 662.933 297.602 662.933 295C662.933 292.354 662.677 290.392 662.165 289.112C661.696 287.832 660.949 287.192 659.925 287.192ZM692.309 281.304L666.965 327H659.477L684.821 281.304H692.309ZM691.861 298.904C694.25 298.904 696.256 299.48 697.877 300.632C699.498 301.741 700.714 303.362 701.525 305.496C702.378 307.586 702.805 310.146 702.805 313.176C702.805 317.698 701.93 321.24 700.181 323.8C698.432 326.317 695.658 327.576 691.861 327.576C689.514 327.576 687.53 327 685.909 325.848C684.33 324.696 683.136 323.053 682.325 320.92C681.514 318.744 681.109 316.162 681.109 313.176C681.109 308.653 681.962 305.154 683.669 302.68C685.376 300.162 688.106 298.904 691.861 298.904ZM691.925 305.432C690.901 305.432 690.154 306.072 689.685 307.352C689.216 308.632 688.981 310.594 688.981 313.24C688.981 315.842 689.216 317.805 689.685 319.128C690.154 320.45 690.901 321.112 691.925 321.112C692.949 321.112 693.696 320.472 694.165 319.192C694.677 317.869 694.933 315.885 694.933 313.24C694.933 310.594 694.677 308.632 694.165 307.352C693.696 306.072 692.949 305.432 691.925 305.432Z" fill="#FF3636"/>
<path d="M552.704 381.544C552.704 383.634 552.256 385.448 551.36 386.984C550.507 388.52 549.333 389.778 547.84 390.76C546.389 391.741 544.725 392.466 542.848 392.936V393.128C546.517 393.554 549.291 394.664 551.168 396.456C553.088 398.248 554.048 400.658 554.048 403.688C554.048 406.333 553.387 408.722 552.064 410.856C550.784 412.946 548.779 414.61 546.048 415.848C543.36 417.042 539.883 417.64 535.616 417.64C533.099 417.64 530.752 417.426 528.576 417C526.4 416.573 524.352 415.954 522.432 415.144V406.952C524.395 407.933 526.443 408.68 528.576 409.192C530.752 409.704 532.757 409.96 534.592 409.96C538.048 409.96 540.459 409.362 541.824 408.168C543.232 406.973 543.936 405.288 543.936 403.112C543.936 401.832 543.616 400.765 542.976 399.912C542.336 399.016 541.205 398.354 539.584 397.928C538.005 397.458 535.787 397.224 532.928 397.224H529.472V389.8H532.992C535.808 389.8 537.941 389.544 539.392 389.032C540.885 388.477 541.888 387.752 542.4 386.856C542.955 385.917 543.232 384.85 543.232 383.656C543.232 382.034 542.72 380.776 541.696 379.88C540.715 378.941 539.051 378.472 536.704 378.472C535.253 378.472 533.931 378.664 532.736 379.048C531.541 379.389 530.453 379.816 529.472 380.328C528.533 380.84 527.701 381.33 526.976 381.8L522.496 375.144C523.691 374.29 525.013 373.522 526.464 372.84C527.957 372.157 529.6 371.624 531.392 371.24C533.184 370.856 535.189 370.664 537.408 370.664C542.101 370.664 545.813 371.624 548.544 373.544C551.317 375.421 552.704 378.088 552.704 381.544ZM575.825 387.816C578.598 387.816 581.073 388.349 583.249 389.416C585.425 390.482 587.132 392.04 588.369 394.088C589.649 396.136 590.289 398.674 590.289 401.704C590.289 404.989 589.606 407.826 588.241 410.216C586.876 412.605 584.828 414.44 582.097 415.72C579.409 417 576.06 417.64 572.049 417.64C569.66 417.64 567.398 417.426 565.265 417C563.174 416.573 561.34 415.954 559.761 415.144V406.824C561.34 407.634 563.238 408.338 565.457 408.936C567.676 409.49 569.766 409.768 571.729 409.768C573.649 409.768 575.249 409.512 576.529 409C577.852 408.488 578.854 407.698 579.537 406.632C580.22 405.565 580.561 404.2 580.561 402.536C580.561 400.274 579.814 398.568 578.321 397.416C576.828 396.221 574.524 395.624 571.409 395.624C570.214 395.624 568.977 395.752 567.697 396.008C566.417 396.221 565.35 396.434 564.497 396.648L560.657 394.6L562.385 371.304H587.153V379.496H570.833L570.001 388.456C570.726 388.328 571.494 388.2 572.305 388.072C573.158 387.901 574.332 387.816 575.825 387.816ZM596.898 412.52C596.898 410.557 597.431 409.192 598.498 408.424C599.565 407.613 600.866 407.208 602.402 407.208C603.895 407.208 605.175 407.613 606.242 408.424C607.309 409.192 607.842 410.557 607.842 412.52C607.842 414.397 607.309 415.762 606.242 416.616C605.175 417.426 603.895 417.832 602.402 417.832C600.866 417.832 599.565 417.426 598.498 416.616C597.431 415.762 596.898 414.397 596.898 412.52ZM637.932 417H628.268V390.568C628.268 389.842 628.268 388.946 628.268 387.88C628.311 386.813 628.353 385.704 628.396 384.552C628.439 383.4 628.481 382.376 628.524 381.48C628.311 381.736 627.841 382.205 627.116 382.888C626.433 383.528 625.793 384.104 625.196 384.616L619.948 388.84L615.276 383.016L629.996 371.304H637.932V417ZM660.861 370.664C664.445 370.664 667.154 371.922 668.989 374.44C670.866 376.914 671.805 380.413 671.805 384.936C671.805 389.458 670.93 393 669.181 395.56C667.432 398.077 664.658 399.336 660.861 399.336C658.514 399.336 656.53 398.76 654.909 397.608C653.33 396.456 652.136 394.813 651.325 392.68C650.514 390.504 650.109 387.922 650.109 384.936C650.109 380.413 650.962 376.914 652.669 374.44C654.376 371.922 657.106 370.664 660.861 370.664ZM660.925 377.192C659.901 377.192 659.154 377.832 658.685 379.112C658.216 380.392 657.981 382.354 657.981 385C657.981 387.602 658.216 389.565 658.685 390.888C659.154 392.21 659.901 392.872 660.925 392.872C661.949 392.872 662.696 392.21 663.165 390.888C663.677 389.565 663.933 387.602 663.933 385C663.933 382.354 663.677 380.392 663.165 379.112C662.696 377.832 661.949 377.192 660.925 377.192ZM693.309 371.304L667.965 417H660.477L685.821 371.304H693.309ZM692.861 388.904C695.25 388.904 697.256 389.48 698.877 390.632C700.498 391.741 701.714 393.362 702.525 395.496C703.378 397.586 703.805 400.146 703.805 403.176C703.805 407.698 702.93 411.24 701.181 413.8C699.432 416.317 696.658 417.576 692.861 417.576C690.514 417.576 688.53 417 686.909 415.848C685.33 414.696 684.136 413.053 683.325 410.92C682.514 408.744 682.109 406.162 682.109 403.176C682.109 398.653 682.962 395.154 684.669 392.68C686.376 390.162 689.106 388.904 692.861 388.904ZM692.925 395.432C691.901 395.432 691.154 396.072 690.685 397.352C690.216 398.632 689.981 400.594 689.981 403.24C689.981 405.842 690.216 407.805 690.685 409.128C691.154 410.45 691.901 411.112 692.925 411.112C693.949 411.112 694.696 410.472 695.165 409.192C695.677 407.869 695.933 405.885 695.933 403.24C695.933 400.594 695.677 398.632 695.165 397.352C694.696 396.072 693.949 395.432 692.925 395.432Z" fill="#BD7676"/>
<defs>
<filter id="filter0_d_134_4" x="154.988" y="566.093" width="785.512" height="88.189" filterUnits="userSpaceOnUse" color-interpolation-filters="sRGB">
<feFlood flood-opacity="0" result="BackgroundImageFix"/>
<feColorMatrix in="SourceAlpha" type="matrix" values="0 0 0 0 0 0 0 0 0 0 0 0 0 0 0 0 0 0 127 0" result="hardAlpha"/>
<feOffset dy="4"/>
<feGaussianBlur stdDeviation="2"/>
<feComposite in2="hardAlpha" operator="out"/>
<feColorMatrix type="matrix" values="0 0 0 0 0 0 0 0 0 0 0 0 0 0 0 0 0 0 0.25 0"/>
<feBlend mode="normal" in2="BackgroundImageFix" result="effect1_dropShadow_134_4"/>
<feBlend mode="normal" in="SourceGraphic" in2="effect1_dropShadow_134_4" result="shape"/>
</filter>
</defs>
</svg>
